G04 #@! TF.GenerationSoftware,KiCad,Pcbnew,(5.1.4)-1*
G04 #@! TF.CreationDate,2019-11-09T18:50:37+08:00*
G04 #@! TF.ProjectId,teensy4_header_breakout,7465656e-7379-4345-9f68-65616465725f,rev?*
G04 #@! TF.SameCoordinates,Original*
G04 #@! TF.FileFunction,Copper,L2,Bot*
G04 #@! TF.FilePolarity,Positive*
%FSLAX46Y46*%
G04 Gerber Fmt 4.6, Leading zero omitted, Abs format (unit mm)*
G04 Created by KiCad (PCBNEW (5.1.4)-1) date 2019-11-09 18:50:37*
%MOMM*%
%LPD*%
G04 APERTURE LIST*
%ADD10C,1.404000*%
%ADD11R,1.404000X1.404000*%
%ADD12R,1.304000X1.304000*%
%ADD13R,0.804000X0.804000*%
%ADD14O,1.700000X1.700000*%
%ADD15C,1.700000*%
%ADD16C,0.685800*%
%ADD17C,0.152400*%
%ADD18C,0.457200*%
G04 APERTURE END LIST*
D10*
X152400000Y-111760000D03*
X167640000Y-81280000D03*
X165100000Y-83820000D03*
X167640000Y-83820000D03*
X167640000Y-86360000D03*
X167640000Y-88900000D03*
X167640000Y-91440000D03*
X167640000Y-93980000D03*
X167640000Y-96520000D03*
X167640000Y-99060000D03*
X167640000Y-101600000D03*
X167640000Y-104140000D03*
X167640000Y-106680000D03*
X167640000Y-109220000D03*
X167640000Y-111760000D03*
X167640000Y-114300000D03*
D11*
X165100000Y-114300000D03*
X162560000Y-114300000D03*
X160020000Y-114300000D03*
X157480000Y-114300000D03*
X154940000Y-114300000D03*
D10*
X152400000Y-114300000D03*
X152400000Y-109220000D03*
X152400000Y-106680000D03*
X152400000Y-104140000D03*
X152400000Y-101600000D03*
X152400000Y-99060000D03*
X152400000Y-96520000D03*
X152400000Y-93980000D03*
X152400000Y-91440000D03*
X152400000Y-88900000D03*
X152400000Y-86360000D03*
D12*
X158750000Y-81915000D03*
X161290000Y-81915000D03*
D13*
X156520000Y-88418400D03*
X157520000Y-88418400D03*
X158520000Y-88418400D03*
X159520000Y-88418400D03*
X160520000Y-88418400D03*
X161520000Y-88418400D03*
X162520000Y-88418400D03*
X163520000Y-88418400D03*
D12*
X154940000Y-106680000D03*
X154940000Y-109220000D03*
X157480000Y-106680000D03*
X157480000Y-109220000D03*
X160020000Y-106680000D03*
X160020000Y-109220000D03*
X162560000Y-106680000D03*
X162560000Y-109220000D03*
X165100000Y-106680000D03*
X165100000Y-109220000D03*
D10*
X152400000Y-83820000D03*
X152400000Y-81280000D03*
D14*
X170180000Y-81280000D03*
X170180000Y-83820000D03*
X170180000Y-86360000D03*
X170180000Y-88900000D03*
X170180000Y-91440000D03*
X170180000Y-93980000D03*
X170180000Y-96520000D03*
X170180000Y-99060000D03*
X170180000Y-101600000D03*
X170180000Y-104140000D03*
X170180000Y-106680000D03*
X170180000Y-109220000D03*
X170180000Y-111760000D03*
D15*
X170180000Y-114300000D03*
D14*
X149860000Y-114300000D03*
X149860000Y-111760000D03*
X149860000Y-109220000D03*
X149860000Y-106680000D03*
X149860000Y-104140000D03*
X149860000Y-101600000D03*
X149860000Y-99060000D03*
X149860000Y-96520000D03*
X149860000Y-93980000D03*
X149860000Y-91440000D03*
X149860000Y-88900000D03*
X149860000Y-86360000D03*
X149860000Y-83820000D03*
D15*
X149860000Y-81280000D03*
D16*
X153047383Y-90432813D03*
X153784690Y-90025336D03*
X166316146Y-111220054D03*
X166522400Y-110388400D03*
D17*
X153047383Y-89947880D02*
X153047383Y-90432813D01*
X153441400Y-89394792D02*
X153047383Y-89788809D01*
X153047383Y-89788809D02*
X153047383Y-89947880D01*
X157520000Y-88138390D02*
X157520000Y-87746200D01*
X157520000Y-87746200D02*
X157429200Y-87655400D01*
X157429200Y-87655400D02*
X154203400Y-87655400D01*
X153441400Y-88417400D02*
X153441400Y-89394792D01*
X154203400Y-87655400D02*
X153441400Y-88417400D01*
X153784700Y-88505166D02*
X153784700Y-89941448D01*
X156239990Y-88138390D02*
X156070999Y-87969399D01*
X154320467Y-87969399D02*
X153784700Y-88505166D01*
X153784700Y-90025326D02*
X153784690Y-90025336D01*
X153784700Y-89941448D02*
X153784700Y-90025326D01*
X156070999Y-87969399D02*
X154320467Y-87969399D01*
D18*
X166556999Y-82363001D02*
X165100000Y-83820000D01*
X169096999Y-82363001D02*
X166556999Y-82363001D01*
X170180000Y-81280000D02*
X169096999Y-82363001D01*
D17*
X166801079Y-111220054D02*
X166316146Y-111220054D01*
X167289832Y-110731301D02*
X166801079Y-111220054D01*
X167937056Y-110731301D02*
X167289832Y-110731301D01*
X170180000Y-101600000D02*
X169062411Y-102717589D01*
X169062411Y-109605946D02*
X167937056Y-110731301D01*
X169062411Y-102717589D02*
X169062411Y-109605946D01*
X170180000Y-99060000D02*
X168757600Y-100482400D01*
X168757600Y-109479690D02*
X167848890Y-110388400D01*
X167007333Y-110388400D02*
X166522400Y-110388400D01*
X168757600Y-100482400D02*
X168757600Y-109479690D01*
X167848890Y-110388400D02*
X167007333Y-110388400D01*
X166030601Y-113369399D02*
X165353610Y-114046390D01*
X169249399Y-113369399D02*
X166030601Y-113369399D01*
X170180000Y-114300000D02*
X169249399Y-113369399D01*
D18*
X160020000Y-113182400D02*
X160020000Y-113106200D01*
X170180000Y-109220000D02*
X168910000Y-110490000D01*
X160020000Y-113182400D02*
X160020000Y-113893990D01*
D17*
G36*
X151724924Y-80353477D02*
G01*
X152400000Y-81028553D01*
X153075076Y-80353477D01*
X153047110Y-80263600D01*
X156591401Y-80263600D01*
X156591400Y-81902541D01*
X156590173Y-81915000D01*
X156595069Y-81964714D01*
X156609571Y-82012518D01*
X156623270Y-82038148D01*
X156633119Y-82056574D01*
X156664810Y-82095190D01*
X156703426Y-82126881D01*
X156747482Y-82150429D01*
X156795286Y-82164931D01*
X156845000Y-82169827D01*
X156857459Y-82168600D01*
X157868294Y-82168600D01*
X157868294Y-82567000D01*
X157872708Y-82611813D01*
X157885779Y-82654905D01*
X157907006Y-82694618D01*
X157935573Y-82729427D01*
X157970382Y-82757994D01*
X158010095Y-82779221D01*
X158053187Y-82792292D01*
X158098000Y-82796706D01*
X159402000Y-82796706D01*
X159446813Y-82792292D01*
X159489905Y-82779221D01*
X159529618Y-82757994D01*
X159564427Y-82729427D01*
X159592994Y-82694618D01*
X159614221Y-82654905D01*
X159627292Y-82611813D01*
X159631706Y-82567000D01*
X159631706Y-82168600D01*
X160408294Y-82168600D01*
X160408294Y-82567000D01*
X160412708Y-82611813D01*
X160425779Y-82654905D01*
X160447006Y-82694618D01*
X160475573Y-82729427D01*
X160510382Y-82757994D01*
X160550095Y-82779221D01*
X160593187Y-82792292D01*
X160638000Y-82796706D01*
X161942000Y-82796706D01*
X161986813Y-82792292D01*
X162029905Y-82779221D01*
X162069618Y-82757994D01*
X162104427Y-82729427D01*
X162132994Y-82694618D01*
X162154221Y-82654905D01*
X162167292Y-82611813D01*
X162171706Y-82567000D01*
X162171706Y-82168600D01*
X163182541Y-82168600D01*
X163195000Y-82169827D01*
X163244714Y-82164931D01*
X163292518Y-82150429D01*
X163336574Y-82126881D01*
X163375190Y-82095190D01*
X163406881Y-82056574D01*
X163430429Y-82012518D01*
X163444931Y-81964714D01*
X163448600Y-81927459D01*
X163448600Y-81927458D01*
X163449827Y-81915000D01*
X163448600Y-81902541D01*
X163448600Y-80263600D01*
X169814963Y-80263600D01*
X169765241Y-80278683D01*
X169577863Y-80378838D01*
X169413625Y-80513625D01*
X169278838Y-80677863D01*
X169178683Y-80865241D01*
X169117007Y-81068558D01*
X169096182Y-81280000D01*
X169117007Y-81491442D01*
X169164714Y-81648709D01*
X168907622Y-81905801D01*
X168330266Y-81905801D01*
X168362844Y-81873223D01*
X168464687Y-81720805D01*
X168534838Y-81551446D01*
X168570600Y-81371656D01*
X168570600Y-81188344D01*
X168534838Y-81008554D01*
X168464687Y-80839195D01*
X168362844Y-80686777D01*
X168233223Y-80557156D01*
X168080805Y-80455313D01*
X167911446Y-80385162D01*
X167731656Y-80349400D01*
X167548344Y-80349400D01*
X167368554Y-80385162D01*
X167199195Y-80455313D01*
X167046777Y-80557156D01*
X166917156Y-80686777D01*
X166815313Y-80839195D01*
X166745162Y-81008554D01*
X166709400Y-81188344D01*
X166709400Y-81371656D01*
X166745162Y-81551446D01*
X166815313Y-81720805D01*
X166917156Y-81873223D01*
X166949734Y-81905801D01*
X166579449Y-81905801D01*
X166556999Y-81903590D01*
X166534549Y-81905801D01*
X166534539Y-81905801D01*
X166467372Y-81912416D01*
X166401248Y-81932475D01*
X166381189Y-81938560D01*
X166301763Y-81981014D01*
X166249591Y-82023830D01*
X166249585Y-82023836D01*
X166232146Y-82038148D01*
X166217834Y-82055587D01*
X165352107Y-82921315D01*
X165191656Y-82889400D01*
X165008344Y-82889400D01*
X164828554Y-82925162D01*
X164659195Y-82995313D01*
X164506777Y-83097156D01*
X164377156Y-83226777D01*
X164275313Y-83379195D01*
X164205162Y-83548554D01*
X164169400Y-83728344D01*
X164169400Y-83911656D01*
X164205162Y-84091446D01*
X164275313Y-84260805D01*
X164377156Y-84413223D01*
X164506777Y-84542844D01*
X164659195Y-84644687D01*
X164828554Y-84714838D01*
X165008344Y-84750600D01*
X165191656Y-84750600D01*
X165212152Y-84746523D01*
X166964924Y-84746523D01*
X167031399Y-84960159D01*
X167265527Y-85056984D01*
X167514046Y-85106271D01*
X167767405Y-85106128D01*
X168015868Y-85056560D01*
X168248601Y-84960159D01*
X168315076Y-84746523D01*
X167640000Y-84071447D01*
X166964924Y-84746523D01*
X165212152Y-84746523D01*
X165371446Y-84714838D01*
X165540805Y-84644687D01*
X165693223Y-84542844D01*
X165822844Y-84413223D01*
X165924687Y-84260805D01*
X165994838Y-84091446D01*
X166030600Y-83911656D01*
X166030600Y-83728344D01*
X166023778Y-83694046D01*
X166353729Y-83694046D01*
X166353872Y-83947405D01*
X166403440Y-84195868D01*
X166499841Y-84428601D01*
X166713477Y-84495076D01*
X167388553Y-83820000D01*
X167891447Y-83820000D01*
X168566523Y-84495076D01*
X168780159Y-84428601D01*
X168876984Y-84194473D01*
X168926271Y-83945954D01*
X168926128Y-83692595D01*
X168876560Y-83444132D01*
X168780159Y-83211399D01*
X168566523Y-83144924D01*
X167891447Y-83820000D01*
X167388553Y-83820000D01*
X166713477Y-83144924D01*
X166499841Y-83211399D01*
X166403016Y-83445527D01*
X166353729Y-83694046D01*
X166023778Y-83694046D01*
X165998685Y-83567893D01*
X166746378Y-82820201D01*
X166987725Y-82820201D01*
X166964924Y-82893477D01*
X167640000Y-83568553D01*
X168315076Y-82893477D01*
X168292275Y-82820201D01*
X169074549Y-82820201D01*
X169096999Y-82822412D01*
X169119449Y-82820201D01*
X169119459Y-82820201D01*
X169186626Y-82813586D01*
X169272808Y-82787442D01*
X169352235Y-82744988D01*
X169421852Y-82687854D01*
X169436173Y-82670404D01*
X169811291Y-82295286D01*
X169968558Y-82342993D01*
X170127020Y-82358600D01*
X170232980Y-82358600D01*
X170391442Y-82342993D01*
X170594759Y-82281317D01*
X170782137Y-82181162D01*
X170946375Y-82046375D01*
X171081162Y-81882137D01*
X171181317Y-81694759D01*
X171196400Y-81645037D01*
X171196400Y-83454963D01*
X171181317Y-83405241D01*
X171081162Y-83217863D01*
X170946375Y-83053625D01*
X170782137Y-82918838D01*
X170594759Y-82818683D01*
X170391442Y-82757007D01*
X170232980Y-82741400D01*
X170127020Y-82741400D01*
X169968558Y-82757007D01*
X169765241Y-82818683D01*
X169577863Y-82918838D01*
X169413625Y-83053625D01*
X169278838Y-83217863D01*
X169178683Y-83405241D01*
X169117007Y-83608558D01*
X169096182Y-83820000D01*
X169117007Y-84031442D01*
X169178683Y-84234759D01*
X169278838Y-84422137D01*
X169413625Y-84586375D01*
X169577863Y-84721162D01*
X169765241Y-84821317D01*
X169968558Y-84882993D01*
X170127020Y-84898600D01*
X170232980Y-84898600D01*
X170391442Y-84882993D01*
X170594759Y-84821317D01*
X170782137Y-84721162D01*
X170946375Y-84586375D01*
X171081162Y-84422137D01*
X171181317Y-84234759D01*
X171196400Y-84185037D01*
X171196400Y-85994963D01*
X171181317Y-85945241D01*
X171081162Y-85757863D01*
X170946375Y-85593625D01*
X170782137Y-85458838D01*
X170594759Y-85358683D01*
X170391442Y-85297007D01*
X170232980Y-85281400D01*
X170127020Y-85281400D01*
X169968558Y-85297007D01*
X169765241Y-85358683D01*
X169577863Y-85458838D01*
X169413625Y-85593625D01*
X169278838Y-85757863D01*
X169178683Y-85945241D01*
X169117007Y-86148558D01*
X169096182Y-86360000D01*
X169117007Y-86571442D01*
X169178683Y-86774759D01*
X169278838Y-86962137D01*
X169413625Y-87126375D01*
X169577863Y-87261162D01*
X169765241Y-87361317D01*
X169968558Y-87422993D01*
X170127020Y-87438600D01*
X170232980Y-87438600D01*
X170391442Y-87422993D01*
X170594759Y-87361317D01*
X170782137Y-87261162D01*
X170946375Y-87126375D01*
X171081162Y-86962137D01*
X171181317Y-86774759D01*
X171196400Y-86725037D01*
X171196400Y-87897534D01*
X171075190Y-87779471D01*
X170839385Y-87626359D01*
X170578240Y-87522192D01*
X170357800Y-87622907D01*
X170357800Y-88722200D01*
X170377800Y-88722200D01*
X170377800Y-89077800D01*
X170357800Y-89077800D01*
X170357800Y-91262200D01*
X170377800Y-91262200D01*
X170377800Y-91617800D01*
X170357800Y-91617800D01*
X170357800Y-92717093D01*
X170578240Y-92817808D01*
X170839385Y-92713641D01*
X171075190Y-92560529D01*
X171196400Y-92442466D01*
X171196400Y-93614963D01*
X171181317Y-93565241D01*
X171081162Y-93377863D01*
X170946375Y-93213625D01*
X170782137Y-93078838D01*
X170594759Y-92978683D01*
X170391442Y-92917007D01*
X170232980Y-92901400D01*
X170127020Y-92901400D01*
X169968558Y-92917007D01*
X169765241Y-92978683D01*
X169577863Y-93078838D01*
X169413625Y-93213625D01*
X169278838Y-93377863D01*
X169178683Y-93565241D01*
X169117007Y-93768558D01*
X169096182Y-93980000D01*
X169117007Y-94191442D01*
X169178683Y-94394759D01*
X169278838Y-94582137D01*
X169413625Y-94746375D01*
X169577863Y-94881162D01*
X169765241Y-94981317D01*
X169968558Y-95042993D01*
X170127020Y-95058600D01*
X170232980Y-95058600D01*
X170391442Y-95042993D01*
X170594759Y-94981317D01*
X170782137Y-94881162D01*
X170946375Y-94746375D01*
X171081162Y-94582137D01*
X171181317Y-94394759D01*
X171196400Y-94345037D01*
X171196400Y-96154963D01*
X171181317Y-96105241D01*
X171081162Y-95917863D01*
X170946375Y-95753625D01*
X170782137Y-95618838D01*
X170594759Y-95518683D01*
X170391442Y-95457007D01*
X170232980Y-95441400D01*
X170127020Y-95441400D01*
X169968558Y-95457007D01*
X169765241Y-95518683D01*
X169577863Y-95618838D01*
X169413625Y-95753625D01*
X169278838Y-95917863D01*
X169178683Y-96105241D01*
X169117007Y-96308558D01*
X169096182Y-96520000D01*
X169117007Y-96731442D01*
X169178683Y-96934759D01*
X169278838Y-97122137D01*
X169413625Y-97286375D01*
X169577863Y-97421162D01*
X169765241Y-97521317D01*
X169968558Y-97582993D01*
X170127020Y-97598600D01*
X170232980Y-97598600D01*
X170391442Y-97582993D01*
X170594759Y-97521317D01*
X170782137Y-97421162D01*
X170946375Y-97286375D01*
X171081162Y-97122137D01*
X171181317Y-96934759D01*
X171196400Y-96885037D01*
X171196401Y-98694963D01*
X171181317Y-98645241D01*
X171081162Y-98457863D01*
X170946375Y-98293625D01*
X170782137Y-98158838D01*
X170594759Y-98058683D01*
X170391442Y-97997007D01*
X170232980Y-97981400D01*
X170127020Y-97981400D01*
X169968558Y-97997007D01*
X169765241Y-98058683D01*
X169577863Y-98158838D01*
X169413625Y-98293625D01*
X169278838Y-98457863D01*
X169178683Y-98645241D01*
X169117007Y-98848558D01*
X169096182Y-99060000D01*
X169117007Y-99271442D01*
X169178683Y-99474759D01*
X169232850Y-99576099D01*
X168552661Y-100256288D01*
X168541032Y-100265832D01*
X168502942Y-100312244D01*
X168474640Y-100365195D01*
X168457211Y-100422650D01*
X168452800Y-100467435D01*
X168452800Y-100467442D01*
X168451327Y-100482400D01*
X168452800Y-100497358D01*
X168452800Y-101141405D01*
X168362844Y-101006777D01*
X168233223Y-100877156D01*
X168080805Y-100775313D01*
X167911446Y-100705162D01*
X167731656Y-100669400D01*
X167548344Y-100669400D01*
X167368554Y-100705162D01*
X167199195Y-100775313D01*
X167046777Y-100877156D01*
X166917156Y-101006777D01*
X166815313Y-101159195D01*
X166745162Y-101328554D01*
X166709400Y-101508344D01*
X166709400Y-101691656D01*
X166745162Y-101871446D01*
X166815313Y-102040805D01*
X166917156Y-102193223D01*
X167046777Y-102322844D01*
X167199195Y-102424687D01*
X167368554Y-102494838D01*
X167548344Y-102530600D01*
X167731656Y-102530600D01*
X167911446Y-102494838D01*
X168080805Y-102424687D01*
X168233223Y-102322844D01*
X168362844Y-102193223D01*
X168452800Y-102058595D01*
X168452800Y-103681405D01*
X168362844Y-103546777D01*
X168233223Y-103417156D01*
X168080805Y-103315313D01*
X167911446Y-103245162D01*
X167731656Y-103209400D01*
X167548344Y-103209400D01*
X167368554Y-103245162D01*
X167199195Y-103315313D01*
X167046777Y-103417156D01*
X166917156Y-103546777D01*
X166815313Y-103699195D01*
X166745162Y-103868554D01*
X166709400Y-104048344D01*
X166709400Y-104231656D01*
X166745162Y-104411446D01*
X166815313Y-104580805D01*
X166917156Y-104733223D01*
X167046777Y-104862844D01*
X167199195Y-104964687D01*
X167368554Y-105034838D01*
X167548344Y-105070600D01*
X167731656Y-105070600D01*
X167911446Y-105034838D01*
X168080805Y-104964687D01*
X168233223Y-104862844D01*
X168362844Y-104733223D01*
X168452800Y-104598594D01*
X168452801Y-106221406D01*
X168362844Y-106086777D01*
X168233223Y-105957156D01*
X168080805Y-105855313D01*
X167911446Y-105785162D01*
X167731656Y-105749400D01*
X167548344Y-105749400D01*
X167368554Y-105785162D01*
X167199195Y-105855313D01*
X167046777Y-105957156D01*
X166917156Y-106086777D01*
X166815313Y-106239195D01*
X166745162Y-106408554D01*
X166709400Y-106588344D01*
X166709400Y-106771656D01*
X166745162Y-106951446D01*
X166815313Y-107120805D01*
X166917156Y-107273223D01*
X167046777Y-107402844D01*
X167199195Y-107504687D01*
X167368554Y-107574838D01*
X167548344Y-107610600D01*
X167731656Y-107610600D01*
X167911446Y-107574838D01*
X168080805Y-107504687D01*
X168233223Y-107402844D01*
X168362844Y-107273223D01*
X168452801Y-107138594D01*
X168452801Y-108761406D01*
X168362844Y-108626777D01*
X168233223Y-108497156D01*
X168080805Y-108395313D01*
X167911446Y-108325162D01*
X167731656Y-108289400D01*
X167548344Y-108289400D01*
X167368554Y-108325162D01*
X167199195Y-108395313D01*
X167046777Y-108497156D01*
X166917156Y-108626777D01*
X166815313Y-108779195D01*
X166745162Y-108948554D01*
X166709400Y-109128344D01*
X166709400Y-109311656D01*
X166745162Y-109491446D01*
X166815313Y-109660805D01*
X166917156Y-109813223D01*
X167046777Y-109942844D01*
X167199195Y-110044687D01*
X167293139Y-110083600D01*
X167006077Y-110083600D01*
X166966313Y-110024090D01*
X166886710Y-109944487D01*
X166793107Y-109881943D01*
X166689100Y-109838863D01*
X166578688Y-109816900D01*
X166466112Y-109816900D01*
X166355700Y-109838863D01*
X166251693Y-109881943D01*
X166158090Y-109944487D01*
X166078487Y-110024090D01*
X166015943Y-110117693D01*
X165972863Y-110221700D01*
X165950900Y-110332112D01*
X165950900Y-110444688D01*
X165972863Y-110555100D01*
X166015943Y-110659107D01*
X166050854Y-110711354D01*
X166045439Y-110713597D01*
X165951836Y-110776141D01*
X165872233Y-110855744D01*
X165809689Y-110949347D01*
X165766609Y-111053354D01*
X165744646Y-111163766D01*
X165744646Y-111276342D01*
X165766609Y-111386754D01*
X165809689Y-111490761D01*
X165872233Y-111584364D01*
X165951836Y-111663967D01*
X166045439Y-111726511D01*
X166149446Y-111769591D01*
X166259858Y-111791554D01*
X166372434Y-111791554D01*
X166482846Y-111769591D01*
X166586853Y-111726511D01*
X166680456Y-111663967D01*
X166717674Y-111626749D01*
X166709400Y-111668344D01*
X166709400Y-111851656D01*
X166745162Y-112031446D01*
X166815313Y-112200805D01*
X166917156Y-112353223D01*
X167046777Y-112482844D01*
X167199195Y-112584687D01*
X167368554Y-112654838D01*
X167548344Y-112690600D01*
X167731656Y-112690600D01*
X167911446Y-112654838D01*
X168080805Y-112584687D01*
X168233223Y-112482844D01*
X168362844Y-112353223D01*
X168464687Y-112200805D01*
X168534838Y-112031446D01*
X168570600Y-111851656D01*
X168570600Y-111668344D01*
X168534838Y-111488554D01*
X168464687Y-111319195D01*
X168362844Y-111166777D01*
X168233223Y-111037156D01*
X168129378Y-110967768D01*
X168153624Y-110947869D01*
X168163168Y-110936240D01*
X169031120Y-110068289D01*
X169083406Y-110144355D01*
X169284810Y-110340529D01*
X169520615Y-110493641D01*
X169781760Y-110597808D01*
X170002200Y-110497093D01*
X170002200Y-109397800D01*
X169982200Y-109397800D01*
X169982200Y-109042200D01*
X170002200Y-109042200D01*
X170002200Y-107942907D01*
X169781760Y-107842192D01*
X169520615Y-107946359D01*
X169367211Y-108045967D01*
X169367211Y-107389820D01*
X169413625Y-107446375D01*
X169577863Y-107581162D01*
X169765241Y-107681317D01*
X169968558Y-107742993D01*
X170127020Y-107758600D01*
X170232980Y-107758600D01*
X170391442Y-107742993D01*
X170594759Y-107681317D01*
X170782137Y-107581162D01*
X170946375Y-107446375D01*
X171081162Y-107282137D01*
X171181317Y-107094759D01*
X171196401Y-107045035D01*
X171196401Y-108217534D01*
X171075190Y-108099471D01*
X170839385Y-107946359D01*
X170578240Y-107842192D01*
X170357800Y-107942907D01*
X170357800Y-109042200D01*
X170377800Y-109042200D01*
X170377800Y-109397800D01*
X170357800Y-109397800D01*
X170357800Y-110497093D01*
X170578240Y-110597808D01*
X170839385Y-110493641D01*
X171075190Y-110340529D01*
X171196401Y-110222466D01*
X171196401Y-111394966D01*
X171181317Y-111345241D01*
X171081162Y-111157863D01*
X170946375Y-110993625D01*
X170782137Y-110858838D01*
X170594759Y-110758683D01*
X170391442Y-110697007D01*
X170232980Y-110681400D01*
X170127020Y-110681400D01*
X169968558Y-110697007D01*
X169765241Y-110758683D01*
X169577863Y-110858838D01*
X169413625Y-110993625D01*
X169278838Y-111157863D01*
X169178683Y-111345241D01*
X169117007Y-111548558D01*
X169096182Y-111760000D01*
X169117007Y-111971442D01*
X169178683Y-112174759D01*
X169278838Y-112362137D01*
X169413625Y-112526375D01*
X169577863Y-112661162D01*
X169765241Y-112761317D01*
X169968558Y-112822993D01*
X170127020Y-112838600D01*
X170232980Y-112838600D01*
X170391442Y-112822993D01*
X170594759Y-112761317D01*
X170782137Y-112661162D01*
X170946375Y-112526375D01*
X171081162Y-112362137D01*
X171181317Y-112174759D01*
X171196401Y-112125034D01*
X171196401Y-113935291D01*
X171135843Y-113789091D01*
X171017803Y-113612433D01*
X170867567Y-113462197D01*
X170690909Y-113344157D01*
X170494616Y-113262850D01*
X170286233Y-113221400D01*
X170073767Y-113221400D01*
X169865384Y-113262850D01*
X169669091Y-113344157D01*
X169660769Y-113349718D01*
X169475511Y-113164460D01*
X169465967Y-113152831D01*
X169419556Y-113114741D01*
X169366605Y-113086439D01*
X169309150Y-113069010D01*
X169264365Y-113064599D01*
X169264357Y-113064599D01*
X169249399Y-113063126D01*
X169234441Y-113064599D01*
X166045559Y-113064599D01*
X166030601Y-113063126D01*
X166015643Y-113064599D01*
X166015635Y-113064599D01*
X165976004Y-113068502D01*
X165970849Y-113069010D01*
X165913395Y-113086439D01*
X165860444Y-113114741D01*
X165814033Y-113152831D01*
X165804493Y-113164455D01*
X165600654Y-113368294D01*
X164398000Y-113368294D01*
X164353187Y-113372708D01*
X164310095Y-113385779D01*
X164270382Y-113407006D01*
X164235573Y-113435573D01*
X164207006Y-113470382D01*
X164185779Y-113510095D01*
X164172708Y-113553187D01*
X164168294Y-113598000D01*
X164168294Y-114046400D01*
X163491706Y-114046400D01*
X163491706Y-113598000D01*
X163487292Y-113553187D01*
X163474221Y-113510095D01*
X163452994Y-113470382D01*
X163424427Y-113435573D01*
X163389618Y-113407006D01*
X163349905Y-113385779D01*
X163306813Y-113372708D01*
X163262000Y-113368294D01*
X161858000Y-113368294D01*
X161813187Y-113372708D01*
X161770095Y-113385779D01*
X161730382Y-113407006D01*
X161695573Y-113435573D01*
X161667006Y-113470382D01*
X161645779Y-113510095D01*
X161632708Y-113553187D01*
X161628294Y-113598000D01*
X161628294Y-114046400D01*
X161235950Y-114046400D01*
X161306200Y-113976150D01*
X161309027Y-113598000D01*
X161297747Y-113483477D01*
X161264342Y-113373354D01*
X161210095Y-113271865D01*
X161137091Y-113182909D01*
X161048135Y-113109905D01*
X160946646Y-113055658D01*
X160836523Y-113022253D01*
X160722000Y-113010973D01*
X160343850Y-113013800D01*
X160197800Y-113159850D01*
X160197800Y-114046400D01*
X159842200Y-114046400D01*
X159842200Y-113159850D01*
X159696150Y-113013800D01*
X159318000Y-113010973D01*
X159203477Y-113022253D01*
X159093354Y-113055658D01*
X158991865Y-113109905D01*
X158902909Y-113182909D01*
X158829905Y-113271865D01*
X158775658Y-113373354D01*
X158742253Y-113483477D01*
X158730973Y-113598000D01*
X158733800Y-113976150D01*
X158804050Y-114046400D01*
X158411706Y-114046400D01*
X158411706Y-113598000D01*
X158407292Y-113553187D01*
X158394221Y-113510095D01*
X158372994Y-113470382D01*
X158344427Y-113435573D01*
X158309618Y-113407006D01*
X158269905Y-113385779D01*
X158226813Y-113372708D01*
X158182000Y-113368294D01*
X156778000Y-113368294D01*
X156733187Y-113372708D01*
X156690095Y-113385779D01*
X156650382Y-113407006D01*
X156615573Y-113435573D01*
X156587006Y-113470382D01*
X156565779Y-113510095D01*
X156552708Y-113553187D01*
X156548294Y-113598000D01*
X156548294Y-114046400D01*
X155871706Y-114046400D01*
X155871706Y-113598000D01*
X155867292Y-113553187D01*
X155854221Y-113510095D01*
X155832994Y-113470382D01*
X155804427Y-113435573D01*
X155769618Y-113407006D01*
X155729905Y-113385779D01*
X155686813Y-113372708D01*
X155642000Y-113368294D01*
X154238000Y-113368294D01*
X154193187Y-113372708D01*
X154150095Y-113385779D01*
X154110382Y-113407006D01*
X154075573Y-113435573D01*
X154047006Y-113470382D01*
X154025779Y-113510095D01*
X154012708Y-113553187D01*
X154008294Y-113598000D01*
X154008294Y-114046400D01*
X153682459Y-114046400D01*
X153670000Y-114045173D01*
X153657541Y-114046400D01*
X153620286Y-114050069D01*
X153572482Y-114064571D01*
X153528426Y-114088119D01*
X153489810Y-114119810D01*
X153458119Y-114158426D01*
X153434571Y-114202482D01*
X153420069Y-114250286D01*
X153415173Y-114300000D01*
X153416400Y-114312459D01*
X153416401Y-115316400D01*
X150225037Y-115316400D01*
X150274759Y-115301317D01*
X150462137Y-115201162D01*
X150626375Y-115066375D01*
X150761162Y-114902137D01*
X150861317Y-114714759D01*
X150922993Y-114511442D01*
X150943818Y-114300000D01*
X150934791Y-114208344D01*
X151469400Y-114208344D01*
X151469400Y-114391656D01*
X151505162Y-114571446D01*
X151575313Y-114740805D01*
X151677156Y-114893223D01*
X151806777Y-115022844D01*
X151959195Y-115124687D01*
X152128554Y-115194838D01*
X152308344Y-115230600D01*
X152491656Y-115230600D01*
X152671446Y-115194838D01*
X152840805Y-115124687D01*
X152993223Y-115022844D01*
X153122844Y-114893223D01*
X153224687Y-114740805D01*
X153294838Y-114571446D01*
X153330600Y-114391656D01*
X153330600Y-114208344D01*
X153294838Y-114028554D01*
X153224687Y-113859195D01*
X153122844Y-113706777D01*
X152993223Y-113577156D01*
X152840805Y-113475313D01*
X152671446Y-113405162D01*
X152491656Y-113369400D01*
X152308344Y-113369400D01*
X152128554Y-113405162D01*
X151959195Y-113475313D01*
X151806777Y-113577156D01*
X151677156Y-113706777D01*
X151575313Y-113859195D01*
X151505162Y-114028554D01*
X151469400Y-114208344D01*
X150934791Y-114208344D01*
X150922993Y-114088558D01*
X150861317Y-113885241D01*
X150761162Y-113697863D01*
X150626375Y-113533625D01*
X150462137Y-113398838D01*
X150274759Y-113298683D01*
X150071442Y-113237007D01*
X149912980Y-113221400D01*
X149807020Y-113221400D01*
X149648558Y-113237007D01*
X149445241Y-113298683D01*
X149257863Y-113398838D01*
X149093625Y-113533625D01*
X148958838Y-113697863D01*
X148858683Y-113885241D01*
X148843600Y-113934963D01*
X148843600Y-112125037D01*
X148858683Y-112174759D01*
X148958838Y-112362137D01*
X149093625Y-112526375D01*
X149257863Y-112661162D01*
X149445241Y-112761317D01*
X149648558Y-112822993D01*
X149807020Y-112838600D01*
X149912980Y-112838600D01*
X150071442Y-112822993D01*
X150274759Y-112761317D01*
X150462137Y-112661162D01*
X150626375Y-112526375D01*
X150761162Y-112362137D01*
X150861317Y-112174759D01*
X150922993Y-111971442D01*
X150943818Y-111760000D01*
X150934791Y-111668344D01*
X151469400Y-111668344D01*
X151469400Y-111851656D01*
X151505162Y-112031446D01*
X151575313Y-112200805D01*
X151677156Y-112353223D01*
X151806777Y-112482844D01*
X151959195Y-112584687D01*
X152128554Y-112654838D01*
X152308344Y-112690600D01*
X152491656Y-112690600D01*
X152671446Y-112654838D01*
X152840805Y-112584687D01*
X152993223Y-112482844D01*
X153122844Y-112353223D01*
X153224687Y-112200805D01*
X153294838Y-112031446D01*
X153330600Y-111851656D01*
X153330600Y-111668344D01*
X153294838Y-111488554D01*
X153224687Y-111319195D01*
X153122844Y-111166777D01*
X152993223Y-111037156D01*
X152840805Y-110935313D01*
X152671446Y-110865162D01*
X152491656Y-110829400D01*
X152308344Y-110829400D01*
X152128554Y-110865162D01*
X151959195Y-110935313D01*
X151806777Y-111037156D01*
X151677156Y-111166777D01*
X151575313Y-111319195D01*
X151505162Y-111488554D01*
X151469400Y-111668344D01*
X150934791Y-111668344D01*
X150922993Y-111548558D01*
X150861317Y-111345241D01*
X150761162Y-111157863D01*
X150626375Y-110993625D01*
X150462137Y-110858838D01*
X150274759Y-110758683D01*
X150071442Y-110697007D01*
X149912980Y-110681400D01*
X149807020Y-110681400D01*
X149648558Y-110697007D01*
X149445241Y-110758683D01*
X149257863Y-110858838D01*
X149093625Y-110993625D01*
X148958838Y-111157863D01*
X148858683Y-111345241D01*
X148843600Y-111394963D01*
X148843600Y-109585037D01*
X148858683Y-109634759D01*
X148958838Y-109822137D01*
X149093625Y-109986375D01*
X149257863Y-110121162D01*
X149445241Y-110221317D01*
X149648558Y-110282993D01*
X149807020Y-110298600D01*
X149912980Y-110298600D01*
X150071442Y-110282993D01*
X150274759Y-110221317D01*
X150462137Y-110121162D01*
X150626375Y-109986375D01*
X150761162Y-109822137D01*
X150861317Y-109634759D01*
X150922993Y-109431442D01*
X150943818Y-109220000D01*
X150934791Y-109128344D01*
X151469400Y-109128344D01*
X151469400Y-109311656D01*
X151505162Y-109491446D01*
X151575313Y-109660805D01*
X151677156Y-109813223D01*
X151806777Y-109942844D01*
X151959195Y-110044687D01*
X152128554Y-110114838D01*
X152308344Y-110150600D01*
X152491656Y-110150600D01*
X152671446Y-110114838D01*
X152840805Y-110044687D01*
X152993223Y-109942844D01*
X153122844Y-109813223D01*
X153224687Y-109660805D01*
X153294838Y-109491446D01*
X153330600Y-109311656D01*
X153330600Y-109128344D01*
X153294838Y-108948554D01*
X153224687Y-108779195D01*
X153122844Y-108626777D01*
X152993223Y-108497156D01*
X152840805Y-108395313D01*
X152671446Y-108325162D01*
X152491656Y-108289400D01*
X152308344Y-108289400D01*
X152128554Y-108325162D01*
X151959195Y-108395313D01*
X151806777Y-108497156D01*
X151677156Y-108626777D01*
X151575313Y-108779195D01*
X151505162Y-108948554D01*
X151469400Y-109128344D01*
X150934791Y-109128344D01*
X150922993Y-109008558D01*
X150861317Y-108805241D01*
X150761162Y-108617863D01*
X150626375Y-108453625D01*
X150462137Y-108318838D01*
X150274759Y-108218683D01*
X150071442Y-108157007D01*
X149912980Y-108141400D01*
X149807020Y-108141400D01*
X149648558Y-108157007D01*
X149445241Y-108218683D01*
X149257863Y-108318838D01*
X149093625Y-108453625D01*
X148958838Y-108617863D01*
X148858683Y-108805241D01*
X148843600Y-108854963D01*
X148843600Y-107045037D01*
X148858683Y-107094759D01*
X148958838Y-107282137D01*
X149093625Y-107446375D01*
X149257863Y-107581162D01*
X149445241Y-107681317D01*
X149648558Y-107742993D01*
X149807020Y-107758600D01*
X149912980Y-107758600D01*
X150071442Y-107742993D01*
X150274759Y-107681317D01*
X150462137Y-107581162D01*
X150626375Y-107446375D01*
X150761162Y-107282137D01*
X150861317Y-107094759D01*
X150922993Y-106891442D01*
X150943818Y-106680000D01*
X150934791Y-106588344D01*
X151469400Y-106588344D01*
X151469400Y-106771656D01*
X151505162Y-106951446D01*
X151575313Y-107120805D01*
X151677156Y-107273223D01*
X151806777Y-107402844D01*
X151959195Y-107504687D01*
X152128554Y-107574838D01*
X152308344Y-107610600D01*
X152491656Y-107610600D01*
X152671446Y-107574838D01*
X152840805Y-107504687D01*
X152993223Y-107402844D01*
X153122844Y-107273223D01*
X153224687Y-107120805D01*
X153294838Y-106951446D01*
X153330600Y-106771656D01*
X153330600Y-106680000D01*
X153415173Y-106680000D01*
X153416400Y-106692459D01*
X153416401Y-109207531D01*
X153415173Y-109220000D01*
X153420069Y-109269714D01*
X153434571Y-109317518D01*
X153458119Y-109361574D01*
X153489810Y-109400190D01*
X153528426Y-109431881D01*
X153572482Y-109455429D01*
X153620286Y-109469931D01*
X153657541Y-109473600D01*
X153670000Y-109474827D01*
X153682459Y-109473600D01*
X154058294Y-109473600D01*
X154058294Y-109872000D01*
X154062708Y-109916813D01*
X154075779Y-109959905D01*
X154097006Y-109999618D01*
X154125573Y-110034427D01*
X154160382Y-110062994D01*
X154200095Y-110084221D01*
X154243187Y-110097292D01*
X154288000Y-110101706D01*
X155592000Y-110101706D01*
X155636813Y-110097292D01*
X155679905Y-110084221D01*
X155719618Y-110062994D01*
X155754427Y-110034427D01*
X155782994Y-109999618D01*
X155804221Y-109959905D01*
X155817292Y-109916813D01*
X155821706Y-109872000D01*
X155821706Y-109473600D01*
X156598294Y-109473600D01*
X156598294Y-109872000D01*
X156602708Y-109916813D01*
X156615779Y-109959905D01*
X156637006Y-109999618D01*
X156665573Y-110034427D01*
X156700382Y-110062994D01*
X156740095Y-110084221D01*
X156783187Y-110097292D01*
X156828000Y-110101706D01*
X158132000Y-110101706D01*
X158176813Y-110097292D01*
X158219905Y-110084221D01*
X158259618Y-110062994D01*
X158294427Y-110034427D01*
X158322994Y-109999618D01*
X158344221Y-109959905D01*
X158357292Y-109916813D01*
X158361706Y-109872000D01*
X158361706Y-109473600D01*
X159138294Y-109473600D01*
X159138294Y-109872000D01*
X159142708Y-109916813D01*
X159155779Y-109959905D01*
X159177006Y-109999618D01*
X159205573Y-110034427D01*
X159240382Y-110062994D01*
X159280095Y-110084221D01*
X159323187Y-110097292D01*
X159368000Y-110101706D01*
X160672000Y-110101706D01*
X160716813Y-110097292D01*
X160759905Y-110084221D01*
X160799618Y-110062994D01*
X160834427Y-110034427D01*
X160862994Y-109999618D01*
X160884221Y-109959905D01*
X160897292Y-109916813D01*
X160901706Y-109872000D01*
X160901706Y-109473600D01*
X161678294Y-109473600D01*
X161678294Y-109872000D01*
X161682708Y-109916813D01*
X161695779Y-109959905D01*
X161717006Y-109999618D01*
X161745573Y-110034427D01*
X161780382Y-110062994D01*
X161820095Y-110084221D01*
X161863187Y-110097292D01*
X161908000Y-110101706D01*
X163212000Y-110101706D01*
X163256813Y-110097292D01*
X163299905Y-110084221D01*
X163339618Y-110062994D01*
X163374427Y-110034427D01*
X163402994Y-109999618D01*
X163424221Y-109959905D01*
X163437292Y-109916813D01*
X163441706Y-109872000D01*
X163441706Y-109473600D01*
X164218294Y-109473600D01*
X164218294Y-109872000D01*
X164222708Y-109916813D01*
X164235779Y-109959905D01*
X164257006Y-109999618D01*
X164285573Y-110034427D01*
X164320382Y-110062994D01*
X164360095Y-110084221D01*
X164403187Y-110097292D01*
X164448000Y-110101706D01*
X165752000Y-110101706D01*
X165796813Y-110097292D01*
X165839905Y-110084221D01*
X165879618Y-110062994D01*
X165914427Y-110034427D01*
X165942994Y-109999618D01*
X165964221Y-109959905D01*
X165977292Y-109916813D01*
X165981706Y-109872000D01*
X165981706Y-109473600D01*
X166357541Y-109473600D01*
X166370000Y-109474827D01*
X166382459Y-109473600D01*
X166419714Y-109469931D01*
X166467518Y-109455429D01*
X166511574Y-109431881D01*
X166550190Y-109400190D01*
X166581881Y-109361574D01*
X166605429Y-109317518D01*
X166619931Y-109269714D01*
X166624827Y-109220000D01*
X166623600Y-109207541D01*
X166623600Y-106692459D01*
X166624827Y-106680000D01*
X166619931Y-106630286D01*
X166605429Y-106582482D01*
X166581881Y-106538426D01*
X166550190Y-106499810D01*
X166511574Y-106468119D01*
X166467518Y-106444571D01*
X166419714Y-106430069D01*
X166382459Y-106426400D01*
X166370000Y-106425173D01*
X166357541Y-106426400D01*
X165981706Y-106426400D01*
X165981706Y-106028000D01*
X165977292Y-105983187D01*
X165964221Y-105940095D01*
X165942994Y-105900382D01*
X165914427Y-105865573D01*
X165879618Y-105837006D01*
X165839905Y-105815779D01*
X165796813Y-105802708D01*
X165752000Y-105798294D01*
X164448000Y-105798294D01*
X164403187Y-105802708D01*
X164360095Y-105815779D01*
X164320382Y-105837006D01*
X164285573Y-105865573D01*
X164257006Y-105900382D01*
X164235779Y-105940095D01*
X164222708Y-105983187D01*
X164218294Y-106028000D01*
X164218294Y-106426400D01*
X163441706Y-106426400D01*
X163441706Y-106028000D01*
X163437292Y-105983187D01*
X163424221Y-105940095D01*
X163402994Y-105900382D01*
X163374427Y-105865573D01*
X163339618Y-105837006D01*
X163299905Y-105815779D01*
X163256813Y-105802708D01*
X163212000Y-105798294D01*
X161908000Y-105798294D01*
X161863187Y-105802708D01*
X161820095Y-105815779D01*
X161780382Y-105837006D01*
X161745573Y-105865573D01*
X161717006Y-105900382D01*
X161695779Y-105940095D01*
X161682708Y-105983187D01*
X161678294Y-106028000D01*
X161678294Y-106426400D01*
X160901706Y-106426400D01*
X160901706Y-106028000D01*
X160897292Y-105983187D01*
X160884221Y-105940095D01*
X160862994Y-105900382D01*
X160834427Y-105865573D01*
X160799618Y-105837006D01*
X160759905Y-105815779D01*
X160716813Y-105802708D01*
X160672000Y-105798294D01*
X159368000Y-105798294D01*
X159323187Y-105802708D01*
X159280095Y-105815779D01*
X159240382Y-105837006D01*
X159205573Y-105865573D01*
X159177006Y-105900382D01*
X159155779Y-105940095D01*
X159142708Y-105983187D01*
X159138294Y-106028000D01*
X159138294Y-106426400D01*
X158361706Y-106426400D01*
X158361706Y-106028000D01*
X158357292Y-105983187D01*
X158344221Y-105940095D01*
X158322994Y-105900382D01*
X158294427Y-105865573D01*
X158259618Y-105837006D01*
X158219905Y-105815779D01*
X158176813Y-105802708D01*
X158132000Y-105798294D01*
X156828000Y-105798294D01*
X156783187Y-105802708D01*
X156740095Y-105815779D01*
X156700382Y-105837006D01*
X156665573Y-105865573D01*
X156637006Y-105900382D01*
X156615779Y-105940095D01*
X156602708Y-105983187D01*
X156598294Y-106028000D01*
X156598294Y-106426400D01*
X155821706Y-106426400D01*
X155821706Y-106028000D01*
X155817292Y-105983187D01*
X155804221Y-105940095D01*
X155782994Y-105900382D01*
X155754427Y-105865573D01*
X155719618Y-105837006D01*
X155679905Y-105815779D01*
X155636813Y-105802708D01*
X155592000Y-105798294D01*
X154288000Y-105798294D01*
X154243187Y-105802708D01*
X154200095Y-105815779D01*
X154160382Y-105837006D01*
X154125573Y-105865573D01*
X154097006Y-105900382D01*
X154075779Y-105940095D01*
X154062708Y-105983187D01*
X154058294Y-106028000D01*
X154058294Y-106426400D01*
X153682459Y-106426400D01*
X153670000Y-106425173D01*
X153657541Y-106426400D01*
X153620286Y-106430069D01*
X153572482Y-106444571D01*
X153528426Y-106468119D01*
X153489810Y-106499810D01*
X153458119Y-106538426D01*
X153434571Y-106582482D01*
X153420069Y-106630286D01*
X153415173Y-106680000D01*
X153330600Y-106680000D01*
X153330600Y-106588344D01*
X153294838Y-106408554D01*
X153224687Y-106239195D01*
X153122844Y-106086777D01*
X152993223Y-105957156D01*
X152840805Y-105855313D01*
X152671446Y-105785162D01*
X152491656Y-105749400D01*
X152308344Y-105749400D01*
X152128554Y-105785162D01*
X151959195Y-105855313D01*
X151806777Y-105957156D01*
X151677156Y-106086777D01*
X151575313Y-106239195D01*
X151505162Y-106408554D01*
X151469400Y-106588344D01*
X150934791Y-106588344D01*
X150922993Y-106468558D01*
X150861317Y-106265241D01*
X150761162Y-106077863D01*
X150626375Y-105913625D01*
X150462137Y-105778838D01*
X150274759Y-105678683D01*
X150071442Y-105617007D01*
X149912980Y-105601400D01*
X149807020Y-105601400D01*
X149648558Y-105617007D01*
X149445241Y-105678683D01*
X149257863Y-105778838D01*
X149093625Y-105913625D01*
X148958838Y-106077863D01*
X148858683Y-106265241D01*
X148843600Y-106314963D01*
X148843600Y-104505037D01*
X148858683Y-104554759D01*
X148958838Y-104742137D01*
X149093625Y-104906375D01*
X149257863Y-105041162D01*
X149445241Y-105141317D01*
X149648558Y-105202993D01*
X149807020Y-105218600D01*
X149912980Y-105218600D01*
X150071442Y-105202993D01*
X150274759Y-105141317D01*
X150462137Y-105041162D01*
X150626375Y-104906375D01*
X150761162Y-104742137D01*
X150861317Y-104554759D01*
X150922993Y-104351442D01*
X150943818Y-104140000D01*
X150934791Y-104048344D01*
X151469400Y-104048344D01*
X151469400Y-104231656D01*
X151505162Y-104411446D01*
X151575313Y-104580805D01*
X151677156Y-104733223D01*
X151806777Y-104862844D01*
X151959195Y-104964687D01*
X152128554Y-105034838D01*
X152308344Y-105070600D01*
X152491656Y-105070600D01*
X152671446Y-105034838D01*
X152840805Y-104964687D01*
X152993223Y-104862844D01*
X153122844Y-104733223D01*
X153224687Y-104580805D01*
X153294838Y-104411446D01*
X153330600Y-104231656D01*
X153330600Y-104048344D01*
X153294838Y-103868554D01*
X153224687Y-103699195D01*
X153122844Y-103546777D01*
X152993223Y-103417156D01*
X152840805Y-103315313D01*
X152671446Y-103245162D01*
X152491656Y-103209400D01*
X152308344Y-103209400D01*
X152128554Y-103245162D01*
X151959195Y-103315313D01*
X151806777Y-103417156D01*
X151677156Y-103546777D01*
X151575313Y-103699195D01*
X151505162Y-103868554D01*
X151469400Y-104048344D01*
X150934791Y-104048344D01*
X150922993Y-103928558D01*
X150861317Y-103725241D01*
X150761162Y-103537863D01*
X150626375Y-103373625D01*
X150462137Y-103238838D01*
X150274759Y-103138683D01*
X150071442Y-103077007D01*
X149912980Y-103061400D01*
X149807020Y-103061400D01*
X149648558Y-103077007D01*
X149445241Y-103138683D01*
X149257863Y-103238838D01*
X149093625Y-103373625D01*
X148958838Y-103537863D01*
X148858683Y-103725241D01*
X148843600Y-103774963D01*
X148843600Y-101965037D01*
X148858683Y-102014759D01*
X148958838Y-102202137D01*
X149093625Y-102366375D01*
X149257863Y-102501162D01*
X149445241Y-102601317D01*
X149648558Y-102662993D01*
X149807020Y-102678600D01*
X149912980Y-102678600D01*
X150071442Y-102662993D01*
X150274759Y-102601317D01*
X150462137Y-102501162D01*
X150626375Y-102366375D01*
X150761162Y-102202137D01*
X150861317Y-102014759D01*
X150922993Y-101811442D01*
X150943818Y-101600000D01*
X150934791Y-101508344D01*
X151469400Y-101508344D01*
X151469400Y-101691656D01*
X151505162Y-101871446D01*
X151575313Y-102040805D01*
X151677156Y-102193223D01*
X151806777Y-102322844D01*
X151959195Y-102424687D01*
X152128554Y-102494838D01*
X152308344Y-102530600D01*
X152491656Y-102530600D01*
X152671446Y-102494838D01*
X152840805Y-102424687D01*
X152993223Y-102322844D01*
X153122844Y-102193223D01*
X153224687Y-102040805D01*
X153294838Y-101871446D01*
X153330600Y-101691656D01*
X153330600Y-101508344D01*
X153294838Y-101328554D01*
X153224687Y-101159195D01*
X153122844Y-101006777D01*
X152993223Y-100877156D01*
X152840805Y-100775313D01*
X152671446Y-100705162D01*
X152491656Y-100669400D01*
X152308344Y-100669400D01*
X152128554Y-100705162D01*
X151959195Y-100775313D01*
X151806777Y-100877156D01*
X151677156Y-101006777D01*
X151575313Y-101159195D01*
X151505162Y-101328554D01*
X151469400Y-101508344D01*
X150934791Y-101508344D01*
X150922993Y-101388558D01*
X150861317Y-101185241D01*
X150761162Y-100997863D01*
X150626375Y-100833625D01*
X150462137Y-100698838D01*
X150274759Y-100598683D01*
X150071442Y-100537007D01*
X149912980Y-100521400D01*
X149807020Y-100521400D01*
X149648558Y-100537007D01*
X149445241Y-100598683D01*
X149257863Y-100698838D01*
X149093625Y-100833625D01*
X148958838Y-100997863D01*
X148858683Y-101185241D01*
X148843600Y-101234963D01*
X148843600Y-99425037D01*
X148858683Y-99474759D01*
X148958838Y-99662137D01*
X149093625Y-99826375D01*
X149257863Y-99961162D01*
X149445241Y-100061317D01*
X149648558Y-100122993D01*
X149807020Y-100138600D01*
X149912980Y-100138600D01*
X150071442Y-100122993D01*
X150274759Y-100061317D01*
X150462137Y-99961162D01*
X150626375Y-99826375D01*
X150761162Y-99662137D01*
X150861317Y-99474759D01*
X150922993Y-99271442D01*
X150943818Y-99060000D01*
X150934791Y-98968344D01*
X151469400Y-98968344D01*
X151469400Y-99151656D01*
X151505162Y-99331446D01*
X151575313Y-99500805D01*
X151677156Y-99653223D01*
X151806777Y-99782844D01*
X151959195Y-99884687D01*
X152128554Y-99954838D01*
X152308344Y-99990600D01*
X152491656Y-99990600D01*
X152671446Y-99954838D01*
X152840805Y-99884687D01*
X152993223Y-99782844D01*
X153122844Y-99653223D01*
X153224687Y-99500805D01*
X153294838Y-99331446D01*
X153330600Y-99151656D01*
X153330600Y-98968344D01*
X153294838Y-98788554D01*
X153224687Y-98619195D01*
X153122844Y-98466777D01*
X152993223Y-98337156D01*
X152840805Y-98235313D01*
X152671446Y-98165162D01*
X152491656Y-98129400D01*
X152308344Y-98129400D01*
X152128554Y-98165162D01*
X151959195Y-98235313D01*
X151806777Y-98337156D01*
X151677156Y-98466777D01*
X151575313Y-98619195D01*
X151505162Y-98788554D01*
X151469400Y-98968344D01*
X150934791Y-98968344D01*
X150922993Y-98848558D01*
X150861317Y-98645241D01*
X150761162Y-98457863D01*
X150626375Y-98293625D01*
X150462137Y-98158838D01*
X150274759Y-98058683D01*
X150071442Y-97997007D01*
X149912980Y-97981400D01*
X149807020Y-97981400D01*
X149648558Y-97997007D01*
X149445241Y-98058683D01*
X149257863Y-98158838D01*
X149093625Y-98293625D01*
X148958838Y-98457863D01*
X148858683Y-98645241D01*
X148843600Y-98694963D01*
X148843600Y-96885037D01*
X148858683Y-96934759D01*
X148958838Y-97122137D01*
X149093625Y-97286375D01*
X149257863Y-97421162D01*
X149445241Y-97521317D01*
X149648558Y-97582993D01*
X149807020Y-97598600D01*
X149912980Y-97598600D01*
X150071442Y-97582993D01*
X150274759Y-97521317D01*
X150462137Y-97421162D01*
X150626375Y-97286375D01*
X150761162Y-97122137D01*
X150861317Y-96934759D01*
X150922993Y-96731442D01*
X150943818Y-96520000D01*
X150934791Y-96428344D01*
X151469400Y-96428344D01*
X151469400Y-96611656D01*
X151505162Y-96791446D01*
X151575313Y-96960805D01*
X151677156Y-97113223D01*
X151806777Y-97242844D01*
X151959195Y-97344687D01*
X152128554Y-97414838D01*
X152308344Y-97450600D01*
X152491656Y-97450600D01*
X152671446Y-97414838D01*
X152840805Y-97344687D01*
X152993223Y-97242844D01*
X153122844Y-97113223D01*
X153224687Y-96960805D01*
X153294838Y-96791446D01*
X153330600Y-96611656D01*
X153330600Y-96428344D01*
X153294838Y-96248554D01*
X153224687Y-96079195D01*
X153122844Y-95926777D01*
X152993223Y-95797156D01*
X152840805Y-95695313D01*
X152671446Y-95625162D01*
X152491656Y-95589400D01*
X152308344Y-95589400D01*
X152128554Y-95625162D01*
X151959195Y-95695313D01*
X151806777Y-95797156D01*
X151677156Y-95926777D01*
X151575313Y-96079195D01*
X151505162Y-96248554D01*
X151469400Y-96428344D01*
X150934791Y-96428344D01*
X150922993Y-96308558D01*
X150861317Y-96105241D01*
X150761162Y-95917863D01*
X150626375Y-95753625D01*
X150462137Y-95618838D01*
X150274759Y-95518683D01*
X150071442Y-95457007D01*
X149912980Y-95441400D01*
X149807020Y-95441400D01*
X149648558Y-95457007D01*
X149445241Y-95518683D01*
X149257863Y-95618838D01*
X149093625Y-95753625D01*
X148958838Y-95917863D01*
X148858683Y-96105241D01*
X148843600Y-96154963D01*
X148843600Y-94345037D01*
X148858683Y-94394759D01*
X148958838Y-94582137D01*
X149093625Y-94746375D01*
X149257863Y-94881162D01*
X149445241Y-94981317D01*
X149648558Y-95042993D01*
X149807020Y-95058600D01*
X149912980Y-95058600D01*
X150071442Y-95042993D01*
X150274759Y-94981317D01*
X150462137Y-94881162D01*
X150626375Y-94746375D01*
X150761162Y-94582137D01*
X150861317Y-94394759D01*
X150922993Y-94191442D01*
X150943818Y-93980000D01*
X150934791Y-93888344D01*
X151469400Y-93888344D01*
X151469400Y-94071656D01*
X151505162Y-94251446D01*
X151575313Y-94420805D01*
X151677156Y-94573223D01*
X151806777Y-94702844D01*
X151959195Y-94804687D01*
X152128554Y-94874838D01*
X152308344Y-94910600D01*
X152491656Y-94910600D01*
X152671446Y-94874838D01*
X152840805Y-94804687D01*
X152993223Y-94702844D01*
X153122844Y-94573223D01*
X153224687Y-94420805D01*
X153294838Y-94251446D01*
X153330600Y-94071656D01*
X153330600Y-93888344D01*
X153294838Y-93708554D01*
X153224687Y-93539195D01*
X153122844Y-93386777D01*
X152993223Y-93257156D01*
X152840805Y-93155313D01*
X152671446Y-93085162D01*
X152491656Y-93049400D01*
X152308344Y-93049400D01*
X152128554Y-93085162D01*
X151959195Y-93155313D01*
X151806777Y-93257156D01*
X151677156Y-93386777D01*
X151575313Y-93539195D01*
X151505162Y-93708554D01*
X151469400Y-93888344D01*
X150934791Y-93888344D01*
X150922993Y-93768558D01*
X150861317Y-93565241D01*
X150761162Y-93377863D01*
X150626375Y-93213625D01*
X150462137Y-93078838D01*
X150274759Y-92978683D01*
X150071442Y-92917007D01*
X149912980Y-92901400D01*
X149807020Y-92901400D01*
X149648558Y-92917007D01*
X149445241Y-92978683D01*
X149257863Y-93078838D01*
X149093625Y-93213625D01*
X148958838Y-93377863D01*
X148858683Y-93565241D01*
X148843600Y-93614963D01*
X148843600Y-91805037D01*
X148858683Y-91854759D01*
X148958838Y-92042137D01*
X149093625Y-92206375D01*
X149257863Y-92341162D01*
X149445241Y-92441317D01*
X149648558Y-92502993D01*
X149807020Y-92518600D01*
X149912980Y-92518600D01*
X150071442Y-92502993D01*
X150274759Y-92441317D01*
X150462137Y-92341162D01*
X150626375Y-92206375D01*
X150761162Y-92042137D01*
X150861317Y-91854759D01*
X150922993Y-91651442D01*
X150943818Y-91440000D01*
X150922993Y-91228558D01*
X150861317Y-91025241D01*
X150761162Y-90837863D01*
X150626375Y-90673625D01*
X150462137Y-90538838D01*
X150274759Y-90438683D01*
X150071442Y-90377007D01*
X149912980Y-90361400D01*
X149807020Y-90361400D01*
X149648558Y-90377007D01*
X149445241Y-90438683D01*
X149257863Y-90538838D01*
X149093625Y-90673625D01*
X148958838Y-90837863D01*
X148858683Y-91025241D01*
X148843600Y-91074963D01*
X148843600Y-89265037D01*
X148858683Y-89314759D01*
X148958838Y-89502137D01*
X149093625Y-89666375D01*
X149257863Y-89801162D01*
X149445241Y-89901317D01*
X149648558Y-89962993D01*
X149807020Y-89978600D01*
X149912980Y-89978600D01*
X150071442Y-89962993D01*
X150274759Y-89901317D01*
X150462137Y-89801162D01*
X150626375Y-89666375D01*
X150761162Y-89502137D01*
X150861317Y-89314759D01*
X150922993Y-89111442D01*
X150943818Y-88900000D01*
X150934791Y-88808344D01*
X151469400Y-88808344D01*
X151469400Y-88991656D01*
X151505162Y-89171446D01*
X151575313Y-89340805D01*
X151677156Y-89493223D01*
X151806777Y-89622844D01*
X151959195Y-89724687D01*
X152128554Y-89794838D01*
X152308344Y-89830600D01*
X152491656Y-89830600D01*
X152671446Y-89794838D01*
X152743453Y-89765012D01*
X152742583Y-89773844D01*
X152742583Y-89773851D01*
X152741110Y-89788809D01*
X152742583Y-89803767D01*
X152742583Y-89949136D01*
X152683073Y-89988900D01*
X152603470Y-90068503D01*
X152540926Y-90162106D01*
X152497846Y-90266113D01*
X152475883Y-90376525D01*
X152475883Y-90489101D01*
X152479921Y-90509400D01*
X152308344Y-90509400D01*
X152128554Y-90545162D01*
X151959195Y-90615313D01*
X151806777Y-90717156D01*
X151677156Y-90846777D01*
X151575313Y-90999195D01*
X151505162Y-91168554D01*
X151469400Y-91348344D01*
X151469400Y-91531656D01*
X151505162Y-91711446D01*
X151575313Y-91880805D01*
X151677156Y-92033223D01*
X151806777Y-92162844D01*
X151959195Y-92264687D01*
X152128554Y-92334838D01*
X152308344Y-92370600D01*
X152491656Y-92370600D01*
X152671446Y-92334838D01*
X152840805Y-92264687D01*
X152993223Y-92162844D01*
X153122844Y-92033223D01*
X153224687Y-91880805D01*
X153294838Y-91711446D01*
X153330600Y-91531656D01*
X153330600Y-91348344D01*
X153294838Y-91168554D01*
X153224687Y-90999195D01*
X153213508Y-90982464D01*
X153214083Y-90982350D01*
X153318090Y-90939270D01*
X153411693Y-90876726D01*
X153491296Y-90797123D01*
X153553840Y-90703520D01*
X153596920Y-90599513D01*
X153603052Y-90568686D01*
X153617990Y-90574873D01*
X153728402Y-90596836D01*
X153840978Y-90596836D01*
X153951390Y-90574873D01*
X154051401Y-90533448D01*
X154051400Y-104762541D01*
X154050173Y-104775000D01*
X154055069Y-104824714D01*
X154069571Y-104872518D01*
X154087668Y-104906375D01*
X154093119Y-104916574D01*
X154124810Y-104955190D01*
X154163426Y-104986881D01*
X154207482Y-105010429D01*
X154255286Y-105024931D01*
X154305000Y-105029827D01*
X154317459Y-105028600D01*
X165722541Y-105028600D01*
X165735000Y-105029827D01*
X165784714Y-105024931D01*
X165832518Y-105010429D01*
X165876574Y-104986881D01*
X165915190Y-104955190D01*
X165946881Y-104916574D01*
X165970429Y-104872518D01*
X165984931Y-104824714D01*
X165988600Y-104787459D01*
X165988600Y-104787458D01*
X165989827Y-104775000D01*
X165988600Y-104762541D01*
X165988600Y-98968344D01*
X166709400Y-98968344D01*
X166709400Y-99151656D01*
X166745162Y-99331446D01*
X166815313Y-99500805D01*
X166917156Y-99653223D01*
X167046777Y-99782844D01*
X167199195Y-99884687D01*
X167368554Y-99954838D01*
X167548344Y-99990600D01*
X167731656Y-99990600D01*
X167911446Y-99954838D01*
X168080805Y-99884687D01*
X168233223Y-99782844D01*
X168362844Y-99653223D01*
X168464687Y-99500805D01*
X168534838Y-99331446D01*
X168570600Y-99151656D01*
X168570600Y-98968344D01*
X168534838Y-98788554D01*
X168464687Y-98619195D01*
X168362844Y-98466777D01*
X168233223Y-98337156D01*
X168080805Y-98235313D01*
X167911446Y-98165162D01*
X167731656Y-98129400D01*
X167548344Y-98129400D01*
X167368554Y-98165162D01*
X167199195Y-98235313D01*
X167046777Y-98337156D01*
X166917156Y-98466777D01*
X166815313Y-98619195D01*
X166745162Y-98788554D01*
X166709400Y-98968344D01*
X165988600Y-98968344D01*
X165988600Y-96428344D01*
X166709400Y-96428344D01*
X166709400Y-96611656D01*
X166745162Y-96791446D01*
X166815313Y-96960805D01*
X166917156Y-97113223D01*
X167046777Y-97242844D01*
X167199195Y-97344687D01*
X167368554Y-97414838D01*
X167548344Y-97450600D01*
X167731656Y-97450600D01*
X167911446Y-97414838D01*
X168080805Y-97344687D01*
X168233223Y-97242844D01*
X168362844Y-97113223D01*
X168464687Y-96960805D01*
X168534838Y-96791446D01*
X168570600Y-96611656D01*
X168570600Y-96428344D01*
X168534838Y-96248554D01*
X168464687Y-96079195D01*
X168362844Y-95926777D01*
X168233223Y-95797156D01*
X168080805Y-95695313D01*
X167911446Y-95625162D01*
X167731656Y-95589400D01*
X167548344Y-95589400D01*
X167368554Y-95625162D01*
X167199195Y-95695313D01*
X167046777Y-95797156D01*
X166917156Y-95926777D01*
X166815313Y-96079195D01*
X166745162Y-96248554D01*
X166709400Y-96428344D01*
X165988600Y-96428344D01*
X165988600Y-93888344D01*
X166709400Y-93888344D01*
X166709400Y-94071656D01*
X166745162Y-94251446D01*
X166815313Y-94420805D01*
X166917156Y-94573223D01*
X167046777Y-94702844D01*
X167199195Y-94804687D01*
X167368554Y-94874838D01*
X167548344Y-94910600D01*
X167731656Y-94910600D01*
X167911446Y-94874838D01*
X168080805Y-94804687D01*
X168233223Y-94702844D01*
X168362844Y-94573223D01*
X168464687Y-94420805D01*
X168534838Y-94251446D01*
X168570600Y-94071656D01*
X168570600Y-93888344D01*
X168534838Y-93708554D01*
X168464687Y-93539195D01*
X168362844Y-93386777D01*
X168233223Y-93257156D01*
X168080805Y-93155313D01*
X167911446Y-93085162D01*
X167731656Y-93049400D01*
X167548344Y-93049400D01*
X167368554Y-93085162D01*
X167199195Y-93155313D01*
X167046777Y-93257156D01*
X166917156Y-93386777D01*
X166815313Y-93539195D01*
X166745162Y-93708554D01*
X166709400Y-93888344D01*
X165988600Y-93888344D01*
X165988600Y-91348344D01*
X166709400Y-91348344D01*
X166709400Y-91531656D01*
X166745162Y-91711446D01*
X166815313Y-91880805D01*
X166917156Y-92033223D01*
X167046777Y-92162844D01*
X167199195Y-92264687D01*
X167368554Y-92334838D01*
X167548344Y-92370600D01*
X167731656Y-92370600D01*
X167911446Y-92334838D01*
X168080805Y-92264687D01*
X168233223Y-92162844D01*
X168362844Y-92033223D01*
X168464687Y-91880805D01*
X168482318Y-91838239D01*
X168802199Y-91838239D01*
X168813144Y-91874344D01*
X168924144Y-92132659D01*
X169083406Y-92364355D01*
X169284810Y-92560529D01*
X169520615Y-92713641D01*
X169781760Y-92817808D01*
X170002200Y-92717093D01*
X170002200Y-91617800D01*
X168904180Y-91617800D01*
X168802199Y-91838239D01*
X168482318Y-91838239D01*
X168534838Y-91711446D01*
X168570600Y-91531656D01*
X168570600Y-91348344D01*
X168534838Y-91168554D01*
X168464687Y-90999195D01*
X168362844Y-90846777D01*
X168233223Y-90717156D01*
X168080805Y-90615313D01*
X167911446Y-90545162D01*
X167731656Y-90509400D01*
X167548344Y-90509400D01*
X167368554Y-90545162D01*
X167199195Y-90615313D01*
X167046777Y-90717156D01*
X166917156Y-90846777D01*
X166815313Y-90999195D01*
X166745162Y-91168554D01*
X166709400Y-91348344D01*
X165988600Y-91348344D01*
X165988600Y-88808344D01*
X166709400Y-88808344D01*
X166709400Y-88991656D01*
X166745162Y-89171446D01*
X166815313Y-89340805D01*
X166917156Y-89493223D01*
X167046777Y-89622844D01*
X167199195Y-89724687D01*
X167368554Y-89794838D01*
X167548344Y-89830600D01*
X167731656Y-89830600D01*
X167911446Y-89794838D01*
X168080805Y-89724687D01*
X168233223Y-89622844D01*
X168362844Y-89493223D01*
X168464687Y-89340805D01*
X168482318Y-89298239D01*
X168802199Y-89298239D01*
X168813144Y-89334344D01*
X168924144Y-89592659D01*
X169083406Y-89824355D01*
X169284810Y-90020529D01*
X169515008Y-90170000D01*
X169284810Y-90319471D01*
X169083406Y-90515645D01*
X168924144Y-90747341D01*
X168813144Y-91005656D01*
X168802199Y-91041761D01*
X168904180Y-91262200D01*
X170002200Y-91262200D01*
X170002200Y-89077800D01*
X168904180Y-89077800D01*
X168802199Y-89298239D01*
X168482318Y-89298239D01*
X168534838Y-89171446D01*
X168570600Y-88991656D01*
X168570600Y-88808344D01*
X168534838Y-88628554D01*
X168482319Y-88501761D01*
X168802199Y-88501761D01*
X168904180Y-88722200D01*
X170002200Y-88722200D01*
X170002200Y-87622907D01*
X169781760Y-87522192D01*
X169520615Y-87626359D01*
X169284810Y-87779471D01*
X169083406Y-87975645D01*
X168924144Y-88207341D01*
X168813144Y-88465656D01*
X168802199Y-88501761D01*
X168482319Y-88501761D01*
X168464687Y-88459195D01*
X168362844Y-88306777D01*
X168233223Y-88177156D01*
X168080805Y-88075313D01*
X167911446Y-88005162D01*
X167731656Y-87969400D01*
X167548344Y-87969400D01*
X167368554Y-88005162D01*
X167199195Y-88075313D01*
X167046777Y-88177156D01*
X166917156Y-88306777D01*
X166815313Y-88459195D01*
X166745162Y-88628554D01*
X166709400Y-88808344D01*
X165988600Y-88808344D01*
X165988600Y-88429859D01*
X165989827Y-88417400D01*
X165984931Y-88367686D01*
X165970429Y-88319882D01*
X165946881Y-88275826D01*
X165915190Y-88237210D01*
X165876574Y-88205519D01*
X165832518Y-88181971D01*
X165784714Y-88167469D01*
X165747459Y-88163800D01*
X165735000Y-88162573D01*
X165722541Y-88163800D01*
X164151706Y-88163800D01*
X164151706Y-88016400D01*
X164147292Y-87971587D01*
X164134221Y-87928495D01*
X164112994Y-87888782D01*
X164084427Y-87853973D01*
X164049618Y-87825406D01*
X164009905Y-87804179D01*
X163966813Y-87791108D01*
X163922000Y-87786694D01*
X163118000Y-87786694D01*
X163073187Y-87791108D01*
X163030095Y-87804179D01*
X163020000Y-87809575D01*
X163009905Y-87804179D01*
X162966813Y-87791108D01*
X162922000Y-87786694D01*
X162461637Y-87786694D01*
X162410095Y-87690265D01*
X162337091Y-87601309D01*
X162248135Y-87528305D01*
X162146646Y-87474058D01*
X162036523Y-87440653D01*
X161922000Y-87429373D01*
X161843850Y-87432200D01*
X161697800Y-87578250D01*
X161697800Y-88163800D01*
X161342200Y-88163800D01*
X161342200Y-87578250D01*
X161196150Y-87432200D01*
X161118000Y-87429373D01*
X161003477Y-87440653D01*
X160893354Y-87474058D01*
X160791865Y-87528305D01*
X160702909Y-87601309D01*
X160629905Y-87690265D01*
X160578363Y-87786694D01*
X160118000Y-87786694D01*
X160073187Y-87791108D01*
X160030095Y-87804179D01*
X160020000Y-87809575D01*
X160009905Y-87804179D01*
X159966813Y-87791108D01*
X159922000Y-87786694D01*
X159118000Y-87786694D01*
X159073187Y-87791108D01*
X159030095Y-87804179D01*
X159020000Y-87809575D01*
X159009905Y-87804179D01*
X158966813Y-87791108D01*
X158922000Y-87786694D01*
X158118000Y-87786694D01*
X158073187Y-87791108D01*
X158030095Y-87804179D01*
X158020000Y-87809575D01*
X158009905Y-87804179D01*
X157966813Y-87791108D01*
X157922000Y-87786694D01*
X157824800Y-87786694D01*
X157824800Y-87761158D01*
X157826273Y-87746200D01*
X157824800Y-87731242D01*
X157824800Y-87731234D01*
X157820389Y-87686449D01*
X157802960Y-87628994D01*
X157774658Y-87576043D01*
X157736568Y-87529632D01*
X157724939Y-87520088D01*
X157655312Y-87450461D01*
X157645768Y-87438832D01*
X157599357Y-87400742D01*
X157546406Y-87372440D01*
X157488951Y-87355011D01*
X157444166Y-87350600D01*
X157444158Y-87350600D01*
X157429200Y-87349127D01*
X157414242Y-87350600D01*
X154218358Y-87350600D01*
X154203400Y-87349127D01*
X154188442Y-87350600D01*
X154188434Y-87350600D01*
X154148803Y-87354503D01*
X154143648Y-87355011D01*
X154122861Y-87361317D01*
X154086194Y-87372440D01*
X154033243Y-87400742D01*
X153986832Y-87438832D01*
X153977292Y-87450456D01*
X153236461Y-88191288D01*
X153224832Y-88200832D01*
X153186742Y-88247244D01*
X153164639Y-88288598D01*
X153158440Y-88300195D01*
X153145952Y-88341361D01*
X153122844Y-88306777D01*
X152993223Y-88177156D01*
X152840805Y-88075313D01*
X152671446Y-88005162D01*
X152491656Y-87969400D01*
X152308344Y-87969400D01*
X152128554Y-88005162D01*
X151959195Y-88075313D01*
X151806777Y-88177156D01*
X151677156Y-88306777D01*
X151575313Y-88459195D01*
X151505162Y-88628554D01*
X151469400Y-88808344D01*
X150934791Y-88808344D01*
X150922993Y-88688558D01*
X150861317Y-88485241D01*
X150761162Y-88297863D01*
X150626375Y-88133625D01*
X150462137Y-87998838D01*
X150274759Y-87898683D01*
X150071442Y-87837007D01*
X149912980Y-87821400D01*
X149807020Y-87821400D01*
X149648558Y-87837007D01*
X149445241Y-87898683D01*
X149257863Y-87998838D01*
X149093625Y-88133625D01*
X148958838Y-88297863D01*
X148858683Y-88485241D01*
X148843600Y-88534963D01*
X148843600Y-87362467D01*
X148964810Y-87480529D01*
X149200615Y-87633641D01*
X149461760Y-87737808D01*
X149682200Y-87637093D01*
X149682200Y-86537800D01*
X150037800Y-86537800D01*
X150037800Y-87637093D01*
X150258240Y-87737808D01*
X150519385Y-87633641D01*
X150755190Y-87480529D01*
X150956594Y-87284355D01*
X151115856Y-87052659D01*
X151226856Y-86794344D01*
X151237801Y-86758239D01*
X151135820Y-86537800D01*
X150037800Y-86537800D01*
X149682200Y-86537800D01*
X149662200Y-86537800D01*
X149662200Y-86268344D01*
X151469400Y-86268344D01*
X151469400Y-86451656D01*
X151505162Y-86631446D01*
X151575313Y-86800805D01*
X151677156Y-86953223D01*
X151806777Y-87082844D01*
X151959195Y-87184687D01*
X152128554Y-87254838D01*
X152308344Y-87290600D01*
X152491656Y-87290600D01*
X152671446Y-87254838D01*
X152840805Y-87184687D01*
X152993223Y-87082844D01*
X153122844Y-86953223D01*
X153224687Y-86800805D01*
X153294838Y-86631446D01*
X153330600Y-86451656D01*
X153330600Y-86268344D01*
X166709400Y-86268344D01*
X166709400Y-86451656D01*
X166745162Y-86631446D01*
X166815313Y-86800805D01*
X166917156Y-86953223D01*
X167046777Y-87082844D01*
X167199195Y-87184687D01*
X167368554Y-87254838D01*
X167548344Y-87290600D01*
X167731656Y-87290600D01*
X167911446Y-87254838D01*
X168080805Y-87184687D01*
X168233223Y-87082844D01*
X168362844Y-86953223D01*
X168464687Y-86800805D01*
X168534838Y-86631446D01*
X168570600Y-86451656D01*
X168570600Y-86268344D01*
X168534838Y-86088554D01*
X168464687Y-85919195D01*
X168362844Y-85766777D01*
X168233223Y-85637156D01*
X168080805Y-85535313D01*
X167911446Y-85465162D01*
X167731656Y-85429400D01*
X167548344Y-85429400D01*
X167368554Y-85465162D01*
X167199195Y-85535313D01*
X167046777Y-85637156D01*
X166917156Y-85766777D01*
X166815313Y-85919195D01*
X166745162Y-86088554D01*
X166709400Y-86268344D01*
X153330600Y-86268344D01*
X153294838Y-86088554D01*
X153224687Y-85919195D01*
X153122844Y-85766777D01*
X152993223Y-85637156D01*
X152840805Y-85535313D01*
X152671446Y-85465162D01*
X152491656Y-85429400D01*
X152308344Y-85429400D01*
X152128554Y-85465162D01*
X151959195Y-85535313D01*
X151806777Y-85637156D01*
X151677156Y-85766777D01*
X151575313Y-85919195D01*
X151505162Y-86088554D01*
X151469400Y-86268344D01*
X149662200Y-86268344D01*
X149662200Y-86182200D01*
X149682200Y-86182200D01*
X149682200Y-85082907D01*
X150037800Y-85082907D01*
X150037800Y-86182200D01*
X151135820Y-86182200D01*
X151237801Y-85961761D01*
X151226856Y-85925656D01*
X151115856Y-85667341D01*
X150956594Y-85435645D01*
X150755190Y-85239471D01*
X150519385Y-85086359D01*
X150258240Y-84982192D01*
X150037800Y-85082907D01*
X149682200Y-85082907D01*
X149461760Y-84982192D01*
X149200615Y-85086359D01*
X148964810Y-85239471D01*
X148843600Y-85357533D01*
X148843600Y-84185037D01*
X148858683Y-84234759D01*
X148958838Y-84422137D01*
X149093625Y-84586375D01*
X149257863Y-84721162D01*
X149445241Y-84821317D01*
X149648558Y-84882993D01*
X149807020Y-84898600D01*
X149912980Y-84898600D01*
X150071442Y-84882993D01*
X150274759Y-84821317D01*
X150462137Y-84721162D01*
X150626375Y-84586375D01*
X150761162Y-84422137D01*
X150861317Y-84234759D01*
X150922993Y-84031442D01*
X150943818Y-83820000D01*
X150934791Y-83728344D01*
X151469400Y-83728344D01*
X151469400Y-83911656D01*
X151505162Y-84091446D01*
X151575313Y-84260805D01*
X151677156Y-84413223D01*
X151806777Y-84542844D01*
X151959195Y-84644687D01*
X152128554Y-84714838D01*
X152308344Y-84750600D01*
X152491656Y-84750600D01*
X152671446Y-84714838D01*
X152840805Y-84644687D01*
X152993223Y-84542844D01*
X153122844Y-84413223D01*
X153224687Y-84260805D01*
X153294838Y-84091446D01*
X153330600Y-83911656D01*
X153330600Y-83728344D01*
X153294838Y-83548554D01*
X153224687Y-83379195D01*
X153122844Y-83226777D01*
X152993223Y-83097156D01*
X152840805Y-82995313D01*
X152671446Y-82925162D01*
X152491656Y-82889400D01*
X152308344Y-82889400D01*
X152128554Y-82925162D01*
X151959195Y-82995313D01*
X151806777Y-83097156D01*
X151677156Y-83226777D01*
X151575313Y-83379195D01*
X151505162Y-83548554D01*
X151469400Y-83728344D01*
X150934791Y-83728344D01*
X150922993Y-83608558D01*
X150861317Y-83405241D01*
X150761162Y-83217863D01*
X150626375Y-83053625D01*
X150462137Y-82918838D01*
X150274759Y-82818683D01*
X150071442Y-82757007D01*
X149912980Y-82741400D01*
X149807020Y-82741400D01*
X149648558Y-82757007D01*
X149445241Y-82818683D01*
X149257863Y-82918838D01*
X149093625Y-83053625D01*
X148958838Y-83217863D01*
X148858683Y-83405241D01*
X148843600Y-83454963D01*
X148843600Y-81644711D01*
X148904157Y-81790909D01*
X149022197Y-81967567D01*
X149172433Y-82117803D01*
X149349091Y-82235843D01*
X149545384Y-82317150D01*
X149753767Y-82358600D01*
X149966233Y-82358600D01*
X150174616Y-82317150D01*
X150370909Y-82235843D01*
X150414789Y-82206523D01*
X151724924Y-82206523D01*
X151791399Y-82420159D01*
X152025527Y-82516984D01*
X152274046Y-82566271D01*
X152527405Y-82566128D01*
X152775868Y-82516560D01*
X153008601Y-82420159D01*
X153075076Y-82206523D01*
X152400000Y-81531447D01*
X151724924Y-82206523D01*
X150414789Y-82206523D01*
X150547567Y-82117803D01*
X150697803Y-81967567D01*
X150815843Y-81790909D01*
X150897150Y-81594616D01*
X150938600Y-81386233D01*
X150938600Y-81173767D01*
X150934678Y-81154046D01*
X151113729Y-81154046D01*
X151113872Y-81407405D01*
X151163440Y-81655868D01*
X151259841Y-81888601D01*
X151473477Y-81955076D01*
X152148553Y-81280000D01*
X152651447Y-81280000D01*
X153326523Y-81955076D01*
X153540159Y-81888601D01*
X153636984Y-81654473D01*
X153686271Y-81405954D01*
X153686128Y-81152595D01*
X153636560Y-80904132D01*
X153540159Y-80671399D01*
X153326523Y-80604924D01*
X152651447Y-81280000D01*
X152148553Y-81280000D01*
X151473477Y-80604924D01*
X151259841Y-80671399D01*
X151163016Y-80905527D01*
X151113729Y-81154046D01*
X150934678Y-81154046D01*
X150897150Y-80965384D01*
X150815843Y-80769091D01*
X150697803Y-80592433D01*
X150547567Y-80442197D01*
X150370909Y-80324157D01*
X150224711Y-80263600D01*
X151752890Y-80263600D01*
X151724924Y-80353477D01*
X151724924Y-80353477D01*
G37*
X151724924Y-80353477D02*
X152400000Y-81028553D01*
X153075076Y-80353477D01*
X153047110Y-80263600D01*
X156591401Y-80263600D01*
X156591400Y-81902541D01*
X156590173Y-81915000D01*
X156595069Y-81964714D01*
X156609571Y-82012518D01*
X156623270Y-82038148D01*
X156633119Y-82056574D01*
X156664810Y-82095190D01*
X156703426Y-82126881D01*
X156747482Y-82150429D01*
X156795286Y-82164931D01*
X156845000Y-82169827D01*
X156857459Y-82168600D01*
X157868294Y-82168600D01*
X157868294Y-82567000D01*
X157872708Y-82611813D01*
X157885779Y-82654905D01*
X157907006Y-82694618D01*
X157935573Y-82729427D01*
X157970382Y-82757994D01*
X158010095Y-82779221D01*
X158053187Y-82792292D01*
X158098000Y-82796706D01*
X159402000Y-82796706D01*
X159446813Y-82792292D01*
X159489905Y-82779221D01*
X159529618Y-82757994D01*
X159564427Y-82729427D01*
X159592994Y-82694618D01*
X159614221Y-82654905D01*
X159627292Y-82611813D01*
X159631706Y-82567000D01*
X159631706Y-82168600D01*
X160408294Y-82168600D01*
X160408294Y-82567000D01*
X160412708Y-82611813D01*
X160425779Y-82654905D01*
X160447006Y-82694618D01*
X160475573Y-82729427D01*
X160510382Y-82757994D01*
X160550095Y-82779221D01*
X160593187Y-82792292D01*
X160638000Y-82796706D01*
X161942000Y-82796706D01*
X161986813Y-82792292D01*
X162029905Y-82779221D01*
X162069618Y-82757994D01*
X162104427Y-82729427D01*
X162132994Y-82694618D01*
X162154221Y-82654905D01*
X162167292Y-82611813D01*
X162171706Y-82567000D01*
X162171706Y-82168600D01*
X163182541Y-82168600D01*
X163195000Y-82169827D01*
X163244714Y-82164931D01*
X163292518Y-82150429D01*
X163336574Y-82126881D01*
X163375190Y-82095190D01*
X163406881Y-82056574D01*
X163430429Y-82012518D01*
X163444931Y-81964714D01*
X163448600Y-81927459D01*
X163448600Y-81927458D01*
X163449827Y-81915000D01*
X163448600Y-81902541D01*
X163448600Y-80263600D01*
X169814963Y-80263600D01*
X169765241Y-80278683D01*
X169577863Y-80378838D01*
X169413625Y-80513625D01*
X169278838Y-80677863D01*
X169178683Y-80865241D01*
X169117007Y-81068558D01*
X169096182Y-81280000D01*
X169117007Y-81491442D01*
X169164714Y-81648709D01*
X168907622Y-81905801D01*
X168330266Y-81905801D01*
X168362844Y-81873223D01*
X168464687Y-81720805D01*
X168534838Y-81551446D01*
X168570600Y-81371656D01*
X168570600Y-81188344D01*
X168534838Y-81008554D01*
X168464687Y-80839195D01*
X168362844Y-80686777D01*
X168233223Y-80557156D01*
X168080805Y-80455313D01*
X167911446Y-80385162D01*
X167731656Y-80349400D01*
X167548344Y-80349400D01*
X167368554Y-80385162D01*
X167199195Y-80455313D01*
X167046777Y-80557156D01*
X166917156Y-80686777D01*
X166815313Y-80839195D01*
X166745162Y-81008554D01*
X166709400Y-81188344D01*
X166709400Y-81371656D01*
X166745162Y-81551446D01*
X166815313Y-81720805D01*
X166917156Y-81873223D01*
X166949734Y-81905801D01*
X166579449Y-81905801D01*
X166556999Y-81903590D01*
X166534549Y-81905801D01*
X166534539Y-81905801D01*
X166467372Y-81912416D01*
X166401248Y-81932475D01*
X166381189Y-81938560D01*
X166301763Y-81981014D01*
X166249591Y-82023830D01*
X166249585Y-82023836D01*
X166232146Y-82038148D01*
X166217834Y-82055587D01*
X165352107Y-82921315D01*
X165191656Y-82889400D01*
X165008344Y-82889400D01*
X164828554Y-82925162D01*
X164659195Y-82995313D01*
X164506777Y-83097156D01*
X164377156Y-83226777D01*
X164275313Y-83379195D01*
X164205162Y-83548554D01*
X164169400Y-83728344D01*
X164169400Y-83911656D01*
X164205162Y-84091446D01*
X164275313Y-84260805D01*
X164377156Y-84413223D01*
X164506777Y-84542844D01*
X164659195Y-84644687D01*
X164828554Y-84714838D01*
X165008344Y-84750600D01*
X165191656Y-84750600D01*
X165212152Y-84746523D01*
X166964924Y-84746523D01*
X167031399Y-84960159D01*
X167265527Y-85056984D01*
X167514046Y-85106271D01*
X167767405Y-85106128D01*
X168015868Y-85056560D01*
X168248601Y-84960159D01*
X168315076Y-84746523D01*
X167640000Y-84071447D01*
X166964924Y-84746523D01*
X165212152Y-84746523D01*
X165371446Y-84714838D01*
X165540805Y-84644687D01*
X165693223Y-84542844D01*
X165822844Y-84413223D01*
X165924687Y-84260805D01*
X165994838Y-84091446D01*
X166030600Y-83911656D01*
X166030600Y-83728344D01*
X166023778Y-83694046D01*
X166353729Y-83694046D01*
X166353872Y-83947405D01*
X166403440Y-84195868D01*
X166499841Y-84428601D01*
X166713477Y-84495076D01*
X167388553Y-83820000D01*
X167891447Y-83820000D01*
X168566523Y-84495076D01*
X168780159Y-84428601D01*
X168876984Y-84194473D01*
X168926271Y-83945954D01*
X168926128Y-83692595D01*
X168876560Y-83444132D01*
X168780159Y-83211399D01*
X168566523Y-83144924D01*
X167891447Y-83820000D01*
X167388553Y-83820000D01*
X166713477Y-83144924D01*
X166499841Y-83211399D01*
X166403016Y-83445527D01*
X166353729Y-83694046D01*
X166023778Y-83694046D01*
X165998685Y-83567893D01*
X166746378Y-82820201D01*
X166987725Y-82820201D01*
X166964924Y-82893477D01*
X167640000Y-83568553D01*
X168315076Y-82893477D01*
X168292275Y-82820201D01*
X169074549Y-82820201D01*
X169096999Y-82822412D01*
X169119449Y-82820201D01*
X169119459Y-82820201D01*
X169186626Y-82813586D01*
X169272808Y-82787442D01*
X169352235Y-82744988D01*
X169421852Y-82687854D01*
X169436173Y-82670404D01*
X169811291Y-82295286D01*
X169968558Y-82342993D01*
X170127020Y-82358600D01*
X170232980Y-82358600D01*
X170391442Y-82342993D01*
X170594759Y-82281317D01*
X170782137Y-82181162D01*
X170946375Y-82046375D01*
X171081162Y-81882137D01*
X171181317Y-81694759D01*
X171196400Y-81645037D01*
X171196400Y-83454963D01*
X171181317Y-83405241D01*
X171081162Y-83217863D01*
X170946375Y-83053625D01*
X170782137Y-82918838D01*
X170594759Y-82818683D01*
X170391442Y-82757007D01*
X170232980Y-82741400D01*
X170127020Y-82741400D01*
X169968558Y-82757007D01*
X169765241Y-82818683D01*
X169577863Y-82918838D01*
X169413625Y-83053625D01*
X169278838Y-83217863D01*
X169178683Y-83405241D01*
X169117007Y-83608558D01*
X169096182Y-83820000D01*
X169117007Y-84031442D01*
X169178683Y-84234759D01*
X169278838Y-84422137D01*
X169413625Y-84586375D01*
X169577863Y-84721162D01*
X169765241Y-84821317D01*
X169968558Y-84882993D01*
X170127020Y-84898600D01*
X170232980Y-84898600D01*
X170391442Y-84882993D01*
X170594759Y-84821317D01*
X170782137Y-84721162D01*
X170946375Y-84586375D01*
X171081162Y-84422137D01*
X171181317Y-84234759D01*
X171196400Y-84185037D01*
X171196400Y-85994963D01*
X171181317Y-85945241D01*
X171081162Y-85757863D01*
X170946375Y-85593625D01*
X170782137Y-85458838D01*
X170594759Y-85358683D01*
X170391442Y-85297007D01*
X170232980Y-85281400D01*
X170127020Y-85281400D01*
X169968558Y-85297007D01*
X169765241Y-85358683D01*
X169577863Y-85458838D01*
X169413625Y-85593625D01*
X169278838Y-85757863D01*
X169178683Y-85945241D01*
X169117007Y-86148558D01*
X169096182Y-86360000D01*
X169117007Y-86571442D01*
X169178683Y-86774759D01*
X169278838Y-86962137D01*
X169413625Y-87126375D01*
X169577863Y-87261162D01*
X169765241Y-87361317D01*
X169968558Y-87422993D01*
X170127020Y-87438600D01*
X170232980Y-87438600D01*
X170391442Y-87422993D01*
X170594759Y-87361317D01*
X170782137Y-87261162D01*
X170946375Y-87126375D01*
X171081162Y-86962137D01*
X171181317Y-86774759D01*
X171196400Y-86725037D01*
X171196400Y-87897534D01*
X171075190Y-87779471D01*
X170839385Y-87626359D01*
X170578240Y-87522192D01*
X170357800Y-87622907D01*
X170357800Y-88722200D01*
X170377800Y-88722200D01*
X170377800Y-89077800D01*
X170357800Y-89077800D01*
X170357800Y-91262200D01*
X170377800Y-91262200D01*
X170377800Y-91617800D01*
X170357800Y-91617800D01*
X170357800Y-92717093D01*
X170578240Y-92817808D01*
X170839385Y-92713641D01*
X171075190Y-92560529D01*
X171196400Y-92442466D01*
X171196400Y-93614963D01*
X171181317Y-93565241D01*
X171081162Y-93377863D01*
X170946375Y-93213625D01*
X170782137Y-93078838D01*
X170594759Y-92978683D01*
X170391442Y-92917007D01*
X170232980Y-92901400D01*
X170127020Y-92901400D01*
X169968558Y-92917007D01*
X169765241Y-92978683D01*
X169577863Y-93078838D01*
X169413625Y-93213625D01*
X169278838Y-93377863D01*
X169178683Y-93565241D01*
X169117007Y-93768558D01*
X169096182Y-93980000D01*
X169117007Y-94191442D01*
X169178683Y-94394759D01*
X169278838Y-94582137D01*
X169413625Y-94746375D01*
X169577863Y-94881162D01*
X169765241Y-94981317D01*
X169968558Y-95042993D01*
X170127020Y-95058600D01*
X170232980Y-95058600D01*
X170391442Y-95042993D01*
X170594759Y-94981317D01*
X170782137Y-94881162D01*
X170946375Y-94746375D01*
X171081162Y-94582137D01*
X171181317Y-94394759D01*
X171196400Y-94345037D01*
X171196400Y-96154963D01*
X171181317Y-96105241D01*
X171081162Y-95917863D01*
X170946375Y-95753625D01*
X170782137Y-95618838D01*
X170594759Y-95518683D01*
X170391442Y-95457007D01*
X170232980Y-95441400D01*
X170127020Y-95441400D01*
X169968558Y-95457007D01*
X169765241Y-95518683D01*
X169577863Y-95618838D01*
X169413625Y-95753625D01*
X169278838Y-95917863D01*
X169178683Y-96105241D01*
X169117007Y-96308558D01*
X169096182Y-96520000D01*
X169117007Y-96731442D01*
X169178683Y-96934759D01*
X169278838Y-97122137D01*
X169413625Y-97286375D01*
X169577863Y-97421162D01*
X169765241Y-97521317D01*
X169968558Y-97582993D01*
X170127020Y-97598600D01*
X170232980Y-97598600D01*
X170391442Y-97582993D01*
X170594759Y-97521317D01*
X170782137Y-97421162D01*
X170946375Y-97286375D01*
X171081162Y-97122137D01*
X171181317Y-96934759D01*
X171196400Y-96885037D01*
X171196401Y-98694963D01*
X171181317Y-98645241D01*
X171081162Y-98457863D01*
X170946375Y-98293625D01*
X170782137Y-98158838D01*
X170594759Y-98058683D01*
X170391442Y-97997007D01*
X170232980Y-97981400D01*
X170127020Y-97981400D01*
X169968558Y-97997007D01*
X169765241Y-98058683D01*
X169577863Y-98158838D01*
X169413625Y-98293625D01*
X169278838Y-98457863D01*
X169178683Y-98645241D01*
X169117007Y-98848558D01*
X169096182Y-99060000D01*
X169117007Y-99271442D01*
X169178683Y-99474759D01*
X169232850Y-99576099D01*
X168552661Y-100256288D01*
X168541032Y-100265832D01*
X168502942Y-100312244D01*
X168474640Y-100365195D01*
X168457211Y-100422650D01*
X168452800Y-100467435D01*
X168452800Y-100467442D01*
X168451327Y-100482400D01*
X168452800Y-100497358D01*
X168452800Y-101141405D01*
X168362844Y-101006777D01*
X168233223Y-100877156D01*
X168080805Y-100775313D01*
X167911446Y-100705162D01*
X167731656Y-100669400D01*
X167548344Y-100669400D01*
X167368554Y-100705162D01*
X167199195Y-100775313D01*
X167046777Y-100877156D01*
X166917156Y-101006777D01*
X166815313Y-101159195D01*
X166745162Y-101328554D01*
X166709400Y-101508344D01*
X166709400Y-101691656D01*
X166745162Y-101871446D01*
X166815313Y-102040805D01*
X166917156Y-102193223D01*
X167046777Y-102322844D01*
X167199195Y-102424687D01*
X167368554Y-102494838D01*
X167548344Y-102530600D01*
X167731656Y-102530600D01*
X167911446Y-102494838D01*
X168080805Y-102424687D01*
X168233223Y-102322844D01*
X168362844Y-102193223D01*
X168452800Y-102058595D01*
X168452800Y-103681405D01*
X168362844Y-103546777D01*
X168233223Y-103417156D01*
X168080805Y-103315313D01*
X167911446Y-103245162D01*
X167731656Y-103209400D01*
X167548344Y-103209400D01*
X167368554Y-103245162D01*
X167199195Y-103315313D01*
X167046777Y-103417156D01*
X166917156Y-103546777D01*
X166815313Y-103699195D01*
X166745162Y-103868554D01*
X166709400Y-104048344D01*
X166709400Y-104231656D01*
X166745162Y-104411446D01*
X166815313Y-104580805D01*
X166917156Y-104733223D01*
X167046777Y-104862844D01*
X167199195Y-104964687D01*
X167368554Y-105034838D01*
X167548344Y-105070600D01*
X167731656Y-105070600D01*
X167911446Y-105034838D01*
X168080805Y-104964687D01*
X168233223Y-104862844D01*
X168362844Y-104733223D01*
X168452800Y-104598594D01*
X168452801Y-106221406D01*
X168362844Y-106086777D01*
X168233223Y-105957156D01*
X168080805Y-105855313D01*
X167911446Y-105785162D01*
X167731656Y-105749400D01*
X167548344Y-105749400D01*
X167368554Y-105785162D01*
X167199195Y-105855313D01*
X167046777Y-105957156D01*
X166917156Y-106086777D01*
X166815313Y-106239195D01*
X166745162Y-106408554D01*
X166709400Y-106588344D01*
X166709400Y-106771656D01*
X166745162Y-106951446D01*
X166815313Y-107120805D01*
X166917156Y-107273223D01*
X167046777Y-107402844D01*
X167199195Y-107504687D01*
X167368554Y-107574838D01*
X167548344Y-107610600D01*
X167731656Y-107610600D01*
X167911446Y-107574838D01*
X168080805Y-107504687D01*
X168233223Y-107402844D01*
X168362844Y-107273223D01*
X168452801Y-107138594D01*
X168452801Y-108761406D01*
X168362844Y-108626777D01*
X168233223Y-108497156D01*
X168080805Y-108395313D01*
X167911446Y-108325162D01*
X167731656Y-108289400D01*
X167548344Y-108289400D01*
X167368554Y-108325162D01*
X167199195Y-108395313D01*
X167046777Y-108497156D01*
X166917156Y-108626777D01*
X166815313Y-108779195D01*
X166745162Y-108948554D01*
X166709400Y-109128344D01*
X166709400Y-109311656D01*
X166745162Y-109491446D01*
X166815313Y-109660805D01*
X166917156Y-109813223D01*
X167046777Y-109942844D01*
X167199195Y-110044687D01*
X167293139Y-110083600D01*
X167006077Y-110083600D01*
X166966313Y-110024090D01*
X166886710Y-109944487D01*
X166793107Y-109881943D01*
X166689100Y-109838863D01*
X166578688Y-109816900D01*
X166466112Y-109816900D01*
X166355700Y-109838863D01*
X166251693Y-109881943D01*
X166158090Y-109944487D01*
X166078487Y-110024090D01*
X166015943Y-110117693D01*
X165972863Y-110221700D01*
X165950900Y-110332112D01*
X165950900Y-110444688D01*
X165972863Y-110555100D01*
X166015943Y-110659107D01*
X166050854Y-110711354D01*
X166045439Y-110713597D01*
X165951836Y-110776141D01*
X165872233Y-110855744D01*
X165809689Y-110949347D01*
X165766609Y-111053354D01*
X165744646Y-111163766D01*
X165744646Y-111276342D01*
X165766609Y-111386754D01*
X165809689Y-111490761D01*
X165872233Y-111584364D01*
X165951836Y-111663967D01*
X166045439Y-111726511D01*
X166149446Y-111769591D01*
X166259858Y-111791554D01*
X166372434Y-111791554D01*
X166482846Y-111769591D01*
X166586853Y-111726511D01*
X166680456Y-111663967D01*
X166717674Y-111626749D01*
X166709400Y-111668344D01*
X166709400Y-111851656D01*
X166745162Y-112031446D01*
X166815313Y-112200805D01*
X166917156Y-112353223D01*
X167046777Y-112482844D01*
X167199195Y-112584687D01*
X167368554Y-112654838D01*
X167548344Y-112690600D01*
X167731656Y-112690600D01*
X167911446Y-112654838D01*
X168080805Y-112584687D01*
X168233223Y-112482844D01*
X168362844Y-112353223D01*
X168464687Y-112200805D01*
X168534838Y-112031446D01*
X168570600Y-111851656D01*
X168570600Y-111668344D01*
X168534838Y-111488554D01*
X168464687Y-111319195D01*
X168362844Y-111166777D01*
X168233223Y-111037156D01*
X168129378Y-110967768D01*
X168153624Y-110947869D01*
X168163168Y-110936240D01*
X169031120Y-110068289D01*
X169083406Y-110144355D01*
X169284810Y-110340529D01*
X169520615Y-110493641D01*
X169781760Y-110597808D01*
X170002200Y-110497093D01*
X170002200Y-109397800D01*
X169982200Y-109397800D01*
X169982200Y-109042200D01*
X170002200Y-109042200D01*
X170002200Y-107942907D01*
X169781760Y-107842192D01*
X169520615Y-107946359D01*
X169367211Y-108045967D01*
X169367211Y-107389820D01*
X169413625Y-107446375D01*
X169577863Y-107581162D01*
X169765241Y-107681317D01*
X169968558Y-107742993D01*
X170127020Y-107758600D01*
X170232980Y-107758600D01*
X170391442Y-107742993D01*
X170594759Y-107681317D01*
X170782137Y-107581162D01*
X170946375Y-107446375D01*
X171081162Y-107282137D01*
X171181317Y-107094759D01*
X171196401Y-107045035D01*
X171196401Y-108217534D01*
X171075190Y-108099471D01*
X170839385Y-107946359D01*
X170578240Y-107842192D01*
X170357800Y-107942907D01*
X170357800Y-109042200D01*
X170377800Y-109042200D01*
X170377800Y-109397800D01*
X170357800Y-109397800D01*
X170357800Y-110497093D01*
X170578240Y-110597808D01*
X170839385Y-110493641D01*
X171075190Y-110340529D01*
X171196401Y-110222466D01*
X171196401Y-111394966D01*
X171181317Y-111345241D01*
X171081162Y-111157863D01*
X170946375Y-110993625D01*
X170782137Y-110858838D01*
X170594759Y-110758683D01*
X170391442Y-110697007D01*
X170232980Y-110681400D01*
X170127020Y-110681400D01*
X169968558Y-110697007D01*
X169765241Y-110758683D01*
X169577863Y-110858838D01*
X169413625Y-110993625D01*
X169278838Y-111157863D01*
X169178683Y-111345241D01*
X169117007Y-111548558D01*
X169096182Y-111760000D01*
X169117007Y-111971442D01*
X169178683Y-112174759D01*
X169278838Y-112362137D01*
X169413625Y-112526375D01*
X169577863Y-112661162D01*
X169765241Y-112761317D01*
X169968558Y-112822993D01*
X170127020Y-112838600D01*
X170232980Y-112838600D01*
X170391442Y-112822993D01*
X170594759Y-112761317D01*
X170782137Y-112661162D01*
X170946375Y-112526375D01*
X171081162Y-112362137D01*
X171181317Y-112174759D01*
X171196401Y-112125034D01*
X171196401Y-113935291D01*
X171135843Y-113789091D01*
X171017803Y-113612433D01*
X170867567Y-113462197D01*
X170690909Y-113344157D01*
X170494616Y-113262850D01*
X170286233Y-113221400D01*
X170073767Y-113221400D01*
X169865384Y-113262850D01*
X169669091Y-113344157D01*
X169660769Y-113349718D01*
X169475511Y-113164460D01*
X169465967Y-113152831D01*
X169419556Y-113114741D01*
X169366605Y-113086439D01*
X169309150Y-113069010D01*
X169264365Y-113064599D01*
X169264357Y-113064599D01*
X169249399Y-113063126D01*
X169234441Y-113064599D01*
X166045559Y-113064599D01*
X166030601Y-113063126D01*
X166015643Y-113064599D01*
X166015635Y-113064599D01*
X165976004Y-113068502D01*
X165970849Y-113069010D01*
X165913395Y-113086439D01*
X165860444Y-113114741D01*
X165814033Y-113152831D01*
X165804493Y-113164455D01*
X165600654Y-113368294D01*
X164398000Y-113368294D01*
X164353187Y-113372708D01*
X164310095Y-113385779D01*
X164270382Y-113407006D01*
X164235573Y-113435573D01*
X164207006Y-113470382D01*
X164185779Y-113510095D01*
X164172708Y-113553187D01*
X164168294Y-113598000D01*
X164168294Y-114046400D01*
X163491706Y-114046400D01*
X163491706Y-113598000D01*
X163487292Y-113553187D01*
X163474221Y-113510095D01*
X163452994Y-113470382D01*
X163424427Y-113435573D01*
X163389618Y-113407006D01*
X163349905Y-113385779D01*
X163306813Y-113372708D01*
X163262000Y-113368294D01*
X161858000Y-113368294D01*
X161813187Y-113372708D01*
X161770095Y-113385779D01*
X161730382Y-113407006D01*
X161695573Y-113435573D01*
X161667006Y-113470382D01*
X161645779Y-113510095D01*
X161632708Y-113553187D01*
X161628294Y-113598000D01*
X161628294Y-114046400D01*
X161235950Y-114046400D01*
X161306200Y-113976150D01*
X161309027Y-113598000D01*
X161297747Y-113483477D01*
X161264342Y-113373354D01*
X161210095Y-113271865D01*
X161137091Y-113182909D01*
X161048135Y-113109905D01*
X160946646Y-113055658D01*
X160836523Y-113022253D01*
X160722000Y-113010973D01*
X160343850Y-113013800D01*
X160197800Y-113159850D01*
X160197800Y-114046400D01*
X159842200Y-114046400D01*
X159842200Y-113159850D01*
X159696150Y-113013800D01*
X159318000Y-113010973D01*
X159203477Y-113022253D01*
X159093354Y-113055658D01*
X158991865Y-113109905D01*
X158902909Y-113182909D01*
X158829905Y-113271865D01*
X158775658Y-113373354D01*
X158742253Y-113483477D01*
X158730973Y-113598000D01*
X158733800Y-113976150D01*
X158804050Y-114046400D01*
X158411706Y-114046400D01*
X158411706Y-113598000D01*
X158407292Y-113553187D01*
X158394221Y-113510095D01*
X158372994Y-113470382D01*
X158344427Y-113435573D01*
X158309618Y-113407006D01*
X158269905Y-113385779D01*
X158226813Y-113372708D01*
X158182000Y-113368294D01*
X156778000Y-113368294D01*
X156733187Y-113372708D01*
X156690095Y-113385779D01*
X156650382Y-113407006D01*
X156615573Y-113435573D01*
X156587006Y-113470382D01*
X156565779Y-113510095D01*
X156552708Y-113553187D01*
X156548294Y-113598000D01*
X156548294Y-114046400D01*
X155871706Y-114046400D01*
X155871706Y-113598000D01*
X155867292Y-113553187D01*
X155854221Y-113510095D01*
X155832994Y-113470382D01*
X155804427Y-113435573D01*
X155769618Y-113407006D01*
X155729905Y-113385779D01*
X155686813Y-113372708D01*
X155642000Y-113368294D01*
X154238000Y-113368294D01*
X154193187Y-113372708D01*
X154150095Y-113385779D01*
X154110382Y-113407006D01*
X154075573Y-113435573D01*
X154047006Y-113470382D01*
X154025779Y-113510095D01*
X154012708Y-113553187D01*
X154008294Y-113598000D01*
X154008294Y-114046400D01*
X153682459Y-114046400D01*
X153670000Y-114045173D01*
X153657541Y-114046400D01*
X153620286Y-114050069D01*
X153572482Y-114064571D01*
X153528426Y-114088119D01*
X153489810Y-114119810D01*
X153458119Y-114158426D01*
X153434571Y-114202482D01*
X153420069Y-114250286D01*
X153415173Y-114300000D01*
X153416400Y-114312459D01*
X153416401Y-115316400D01*
X150225037Y-115316400D01*
X150274759Y-115301317D01*
X150462137Y-115201162D01*
X150626375Y-115066375D01*
X150761162Y-114902137D01*
X150861317Y-114714759D01*
X150922993Y-114511442D01*
X150943818Y-114300000D01*
X150934791Y-114208344D01*
X151469400Y-114208344D01*
X151469400Y-114391656D01*
X151505162Y-114571446D01*
X151575313Y-114740805D01*
X151677156Y-114893223D01*
X151806777Y-115022844D01*
X151959195Y-115124687D01*
X152128554Y-115194838D01*
X152308344Y-115230600D01*
X152491656Y-115230600D01*
X152671446Y-115194838D01*
X152840805Y-115124687D01*
X152993223Y-115022844D01*
X153122844Y-114893223D01*
X153224687Y-114740805D01*
X153294838Y-114571446D01*
X153330600Y-114391656D01*
X153330600Y-114208344D01*
X153294838Y-114028554D01*
X153224687Y-113859195D01*
X153122844Y-113706777D01*
X152993223Y-113577156D01*
X152840805Y-113475313D01*
X152671446Y-113405162D01*
X152491656Y-113369400D01*
X152308344Y-113369400D01*
X152128554Y-113405162D01*
X151959195Y-113475313D01*
X151806777Y-113577156D01*
X151677156Y-113706777D01*
X151575313Y-113859195D01*
X151505162Y-114028554D01*
X151469400Y-114208344D01*
X150934791Y-114208344D01*
X150922993Y-114088558D01*
X150861317Y-113885241D01*
X150761162Y-113697863D01*
X150626375Y-113533625D01*
X150462137Y-113398838D01*
X150274759Y-113298683D01*
X150071442Y-113237007D01*
X149912980Y-113221400D01*
X149807020Y-113221400D01*
X149648558Y-113237007D01*
X149445241Y-113298683D01*
X149257863Y-113398838D01*
X149093625Y-113533625D01*
X148958838Y-113697863D01*
X148858683Y-113885241D01*
X148843600Y-113934963D01*
X148843600Y-112125037D01*
X148858683Y-112174759D01*
X148958838Y-112362137D01*
X149093625Y-112526375D01*
X149257863Y-112661162D01*
X149445241Y-112761317D01*
X149648558Y-112822993D01*
X149807020Y-112838600D01*
X149912980Y-112838600D01*
X150071442Y-112822993D01*
X150274759Y-112761317D01*
X150462137Y-112661162D01*
X150626375Y-112526375D01*
X150761162Y-112362137D01*
X150861317Y-112174759D01*
X150922993Y-111971442D01*
X150943818Y-111760000D01*
X150934791Y-111668344D01*
X151469400Y-111668344D01*
X151469400Y-111851656D01*
X151505162Y-112031446D01*
X151575313Y-112200805D01*
X151677156Y-112353223D01*
X151806777Y-112482844D01*
X151959195Y-112584687D01*
X152128554Y-112654838D01*
X152308344Y-112690600D01*
X152491656Y-112690600D01*
X152671446Y-112654838D01*
X152840805Y-112584687D01*
X152993223Y-112482844D01*
X153122844Y-112353223D01*
X153224687Y-112200805D01*
X153294838Y-112031446D01*
X153330600Y-111851656D01*
X153330600Y-111668344D01*
X153294838Y-111488554D01*
X153224687Y-111319195D01*
X153122844Y-111166777D01*
X152993223Y-111037156D01*
X152840805Y-110935313D01*
X152671446Y-110865162D01*
X152491656Y-110829400D01*
X152308344Y-110829400D01*
X152128554Y-110865162D01*
X151959195Y-110935313D01*
X151806777Y-111037156D01*
X151677156Y-111166777D01*
X151575313Y-111319195D01*
X151505162Y-111488554D01*
X151469400Y-111668344D01*
X150934791Y-111668344D01*
X150922993Y-111548558D01*
X150861317Y-111345241D01*
X150761162Y-111157863D01*
X150626375Y-110993625D01*
X150462137Y-110858838D01*
X150274759Y-110758683D01*
X150071442Y-110697007D01*
X149912980Y-110681400D01*
X149807020Y-110681400D01*
X149648558Y-110697007D01*
X149445241Y-110758683D01*
X149257863Y-110858838D01*
X149093625Y-110993625D01*
X148958838Y-111157863D01*
X148858683Y-111345241D01*
X148843600Y-111394963D01*
X148843600Y-109585037D01*
X148858683Y-109634759D01*
X148958838Y-109822137D01*
X149093625Y-109986375D01*
X149257863Y-110121162D01*
X149445241Y-110221317D01*
X149648558Y-110282993D01*
X149807020Y-110298600D01*
X149912980Y-110298600D01*
X150071442Y-110282993D01*
X150274759Y-110221317D01*
X150462137Y-110121162D01*
X150626375Y-109986375D01*
X150761162Y-109822137D01*
X150861317Y-109634759D01*
X150922993Y-109431442D01*
X150943818Y-109220000D01*
X150934791Y-109128344D01*
X151469400Y-109128344D01*
X151469400Y-109311656D01*
X151505162Y-109491446D01*
X151575313Y-109660805D01*
X151677156Y-109813223D01*
X151806777Y-109942844D01*
X151959195Y-110044687D01*
X152128554Y-110114838D01*
X152308344Y-110150600D01*
X152491656Y-110150600D01*
X152671446Y-110114838D01*
X152840805Y-110044687D01*
X152993223Y-109942844D01*
X153122844Y-109813223D01*
X153224687Y-109660805D01*
X153294838Y-109491446D01*
X153330600Y-109311656D01*
X153330600Y-109128344D01*
X153294838Y-108948554D01*
X153224687Y-108779195D01*
X153122844Y-108626777D01*
X152993223Y-108497156D01*
X152840805Y-108395313D01*
X152671446Y-108325162D01*
X152491656Y-108289400D01*
X152308344Y-108289400D01*
X152128554Y-108325162D01*
X151959195Y-108395313D01*
X151806777Y-108497156D01*
X151677156Y-108626777D01*
X151575313Y-108779195D01*
X151505162Y-108948554D01*
X151469400Y-109128344D01*
X150934791Y-109128344D01*
X150922993Y-109008558D01*
X150861317Y-108805241D01*
X150761162Y-108617863D01*
X150626375Y-108453625D01*
X150462137Y-108318838D01*
X150274759Y-108218683D01*
X150071442Y-108157007D01*
X149912980Y-108141400D01*
X149807020Y-108141400D01*
X149648558Y-108157007D01*
X149445241Y-108218683D01*
X149257863Y-108318838D01*
X149093625Y-108453625D01*
X148958838Y-108617863D01*
X148858683Y-108805241D01*
X148843600Y-108854963D01*
X148843600Y-107045037D01*
X148858683Y-107094759D01*
X148958838Y-107282137D01*
X149093625Y-107446375D01*
X149257863Y-107581162D01*
X149445241Y-107681317D01*
X149648558Y-107742993D01*
X149807020Y-107758600D01*
X149912980Y-107758600D01*
X150071442Y-107742993D01*
X150274759Y-107681317D01*
X150462137Y-107581162D01*
X150626375Y-107446375D01*
X150761162Y-107282137D01*
X150861317Y-107094759D01*
X150922993Y-106891442D01*
X150943818Y-106680000D01*
X150934791Y-106588344D01*
X151469400Y-106588344D01*
X151469400Y-106771656D01*
X151505162Y-106951446D01*
X151575313Y-107120805D01*
X151677156Y-107273223D01*
X151806777Y-107402844D01*
X151959195Y-107504687D01*
X152128554Y-107574838D01*
X152308344Y-107610600D01*
X152491656Y-107610600D01*
X152671446Y-107574838D01*
X152840805Y-107504687D01*
X152993223Y-107402844D01*
X153122844Y-107273223D01*
X153224687Y-107120805D01*
X153294838Y-106951446D01*
X153330600Y-106771656D01*
X153330600Y-106680000D01*
X153415173Y-106680000D01*
X153416400Y-106692459D01*
X153416401Y-109207531D01*
X153415173Y-109220000D01*
X153420069Y-109269714D01*
X153434571Y-109317518D01*
X153458119Y-109361574D01*
X153489810Y-109400190D01*
X153528426Y-109431881D01*
X153572482Y-109455429D01*
X153620286Y-109469931D01*
X153657541Y-109473600D01*
X153670000Y-109474827D01*
X153682459Y-109473600D01*
X154058294Y-109473600D01*
X154058294Y-109872000D01*
X154062708Y-109916813D01*
X154075779Y-109959905D01*
X154097006Y-109999618D01*
X154125573Y-110034427D01*
X154160382Y-110062994D01*
X154200095Y-110084221D01*
X154243187Y-110097292D01*
X154288000Y-110101706D01*
X155592000Y-110101706D01*
X155636813Y-110097292D01*
X155679905Y-110084221D01*
X155719618Y-110062994D01*
X155754427Y-110034427D01*
X155782994Y-109999618D01*
X155804221Y-109959905D01*
X155817292Y-109916813D01*
X155821706Y-109872000D01*
X155821706Y-109473600D01*
X156598294Y-109473600D01*
X156598294Y-109872000D01*
X156602708Y-109916813D01*
X156615779Y-109959905D01*
X156637006Y-109999618D01*
X156665573Y-110034427D01*
X156700382Y-110062994D01*
X156740095Y-110084221D01*
X156783187Y-110097292D01*
X156828000Y-110101706D01*
X158132000Y-110101706D01*
X158176813Y-110097292D01*
X158219905Y-110084221D01*
X158259618Y-110062994D01*
X158294427Y-110034427D01*
X158322994Y-109999618D01*
X158344221Y-109959905D01*
X158357292Y-109916813D01*
X158361706Y-109872000D01*
X158361706Y-109473600D01*
X159138294Y-109473600D01*
X159138294Y-109872000D01*
X159142708Y-109916813D01*
X159155779Y-109959905D01*
X159177006Y-109999618D01*
X159205573Y-110034427D01*
X159240382Y-110062994D01*
X159280095Y-110084221D01*
X159323187Y-110097292D01*
X159368000Y-110101706D01*
X160672000Y-110101706D01*
X160716813Y-110097292D01*
X160759905Y-110084221D01*
X160799618Y-110062994D01*
X160834427Y-110034427D01*
X160862994Y-109999618D01*
X160884221Y-109959905D01*
X160897292Y-109916813D01*
X160901706Y-109872000D01*
X160901706Y-109473600D01*
X161678294Y-109473600D01*
X161678294Y-109872000D01*
X161682708Y-109916813D01*
X161695779Y-109959905D01*
X161717006Y-109999618D01*
X161745573Y-110034427D01*
X161780382Y-110062994D01*
X161820095Y-110084221D01*
X161863187Y-110097292D01*
X161908000Y-110101706D01*
X163212000Y-110101706D01*
X163256813Y-110097292D01*
X163299905Y-110084221D01*
X163339618Y-110062994D01*
X163374427Y-110034427D01*
X163402994Y-109999618D01*
X163424221Y-109959905D01*
X163437292Y-109916813D01*
X163441706Y-109872000D01*
X163441706Y-109473600D01*
X164218294Y-109473600D01*
X164218294Y-109872000D01*
X164222708Y-109916813D01*
X164235779Y-109959905D01*
X164257006Y-109999618D01*
X164285573Y-110034427D01*
X164320382Y-110062994D01*
X164360095Y-110084221D01*
X164403187Y-110097292D01*
X164448000Y-110101706D01*
X165752000Y-110101706D01*
X165796813Y-110097292D01*
X165839905Y-110084221D01*
X165879618Y-110062994D01*
X165914427Y-110034427D01*
X165942994Y-109999618D01*
X165964221Y-109959905D01*
X165977292Y-109916813D01*
X165981706Y-109872000D01*
X165981706Y-109473600D01*
X166357541Y-109473600D01*
X166370000Y-109474827D01*
X166382459Y-109473600D01*
X166419714Y-109469931D01*
X166467518Y-109455429D01*
X166511574Y-109431881D01*
X166550190Y-109400190D01*
X166581881Y-109361574D01*
X166605429Y-109317518D01*
X166619931Y-109269714D01*
X166624827Y-109220000D01*
X166623600Y-109207541D01*
X166623600Y-106692459D01*
X166624827Y-106680000D01*
X166619931Y-106630286D01*
X166605429Y-106582482D01*
X166581881Y-106538426D01*
X166550190Y-106499810D01*
X166511574Y-106468119D01*
X166467518Y-106444571D01*
X166419714Y-106430069D01*
X166382459Y-106426400D01*
X166370000Y-106425173D01*
X166357541Y-106426400D01*
X165981706Y-106426400D01*
X165981706Y-106028000D01*
X165977292Y-105983187D01*
X165964221Y-105940095D01*
X165942994Y-105900382D01*
X165914427Y-105865573D01*
X165879618Y-105837006D01*
X165839905Y-105815779D01*
X165796813Y-105802708D01*
X165752000Y-105798294D01*
X164448000Y-105798294D01*
X164403187Y-105802708D01*
X164360095Y-105815779D01*
X164320382Y-105837006D01*
X164285573Y-105865573D01*
X164257006Y-105900382D01*
X164235779Y-105940095D01*
X164222708Y-105983187D01*
X164218294Y-106028000D01*
X164218294Y-106426400D01*
X163441706Y-106426400D01*
X163441706Y-106028000D01*
X163437292Y-105983187D01*
X163424221Y-105940095D01*
X163402994Y-105900382D01*
X163374427Y-105865573D01*
X163339618Y-105837006D01*
X163299905Y-105815779D01*
X163256813Y-105802708D01*
X163212000Y-105798294D01*
X161908000Y-105798294D01*
X161863187Y-105802708D01*
X161820095Y-105815779D01*
X161780382Y-105837006D01*
X161745573Y-105865573D01*
X161717006Y-105900382D01*
X161695779Y-105940095D01*
X161682708Y-105983187D01*
X161678294Y-106028000D01*
X161678294Y-106426400D01*
X160901706Y-106426400D01*
X160901706Y-106028000D01*
X160897292Y-105983187D01*
X160884221Y-105940095D01*
X160862994Y-105900382D01*
X160834427Y-105865573D01*
X160799618Y-105837006D01*
X160759905Y-105815779D01*
X160716813Y-105802708D01*
X160672000Y-105798294D01*
X159368000Y-105798294D01*
X159323187Y-105802708D01*
X159280095Y-105815779D01*
X159240382Y-105837006D01*
X159205573Y-105865573D01*
X159177006Y-105900382D01*
X159155779Y-105940095D01*
X159142708Y-105983187D01*
X159138294Y-106028000D01*
X159138294Y-106426400D01*
X158361706Y-106426400D01*
X158361706Y-106028000D01*
X158357292Y-105983187D01*
X158344221Y-105940095D01*
X158322994Y-105900382D01*
X158294427Y-105865573D01*
X158259618Y-105837006D01*
X158219905Y-105815779D01*
X158176813Y-105802708D01*
X158132000Y-105798294D01*
X156828000Y-105798294D01*
X156783187Y-105802708D01*
X156740095Y-105815779D01*
X156700382Y-105837006D01*
X156665573Y-105865573D01*
X156637006Y-105900382D01*
X156615779Y-105940095D01*
X156602708Y-105983187D01*
X156598294Y-106028000D01*
X156598294Y-106426400D01*
X155821706Y-106426400D01*
X155821706Y-106028000D01*
X155817292Y-105983187D01*
X155804221Y-105940095D01*
X155782994Y-105900382D01*
X155754427Y-105865573D01*
X155719618Y-105837006D01*
X155679905Y-105815779D01*
X155636813Y-105802708D01*
X155592000Y-105798294D01*
X154288000Y-105798294D01*
X154243187Y-105802708D01*
X154200095Y-105815779D01*
X154160382Y-105837006D01*
X154125573Y-105865573D01*
X154097006Y-105900382D01*
X154075779Y-105940095D01*
X154062708Y-105983187D01*
X154058294Y-106028000D01*
X154058294Y-106426400D01*
X153682459Y-106426400D01*
X153670000Y-106425173D01*
X153657541Y-106426400D01*
X153620286Y-106430069D01*
X153572482Y-106444571D01*
X153528426Y-106468119D01*
X153489810Y-106499810D01*
X153458119Y-106538426D01*
X153434571Y-106582482D01*
X153420069Y-106630286D01*
X153415173Y-106680000D01*
X153330600Y-106680000D01*
X153330600Y-106588344D01*
X153294838Y-106408554D01*
X153224687Y-106239195D01*
X153122844Y-106086777D01*
X152993223Y-105957156D01*
X152840805Y-105855313D01*
X152671446Y-105785162D01*
X152491656Y-105749400D01*
X152308344Y-105749400D01*
X152128554Y-105785162D01*
X151959195Y-105855313D01*
X151806777Y-105957156D01*
X151677156Y-106086777D01*
X151575313Y-106239195D01*
X151505162Y-106408554D01*
X151469400Y-106588344D01*
X150934791Y-106588344D01*
X150922993Y-106468558D01*
X150861317Y-106265241D01*
X150761162Y-106077863D01*
X150626375Y-105913625D01*
X150462137Y-105778838D01*
X150274759Y-105678683D01*
X150071442Y-105617007D01*
X149912980Y-105601400D01*
X149807020Y-105601400D01*
X149648558Y-105617007D01*
X149445241Y-105678683D01*
X149257863Y-105778838D01*
X149093625Y-105913625D01*
X148958838Y-106077863D01*
X148858683Y-106265241D01*
X148843600Y-106314963D01*
X148843600Y-104505037D01*
X148858683Y-104554759D01*
X148958838Y-104742137D01*
X149093625Y-104906375D01*
X149257863Y-105041162D01*
X149445241Y-105141317D01*
X149648558Y-105202993D01*
X149807020Y-105218600D01*
X149912980Y-105218600D01*
X150071442Y-105202993D01*
X150274759Y-105141317D01*
X150462137Y-105041162D01*
X150626375Y-104906375D01*
X150761162Y-104742137D01*
X150861317Y-104554759D01*
X150922993Y-104351442D01*
X150943818Y-104140000D01*
X150934791Y-104048344D01*
X151469400Y-104048344D01*
X151469400Y-104231656D01*
X151505162Y-104411446D01*
X151575313Y-104580805D01*
X151677156Y-104733223D01*
X151806777Y-104862844D01*
X151959195Y-104964687D01*
X152128554Y-105034838D01*
X152308344Y-105070600D01*
X152491656Y-105070600D01*
X152671446Y-105034838D01*
X152840805Y-104964687D01*
X152993223Y-104862844D01*
X153122844Y-104733223D01*
X153224687Y-104580805D01*
X153294838Y-104411446D01*
X153330600Y-104231656D01*
X153330600Y-104048344D01*
X153294838Y-103868554D01*
X153224687Y-103699195D01*
X153122844Y-103546777D01*
X152993223Y-103417156D01*
X152840805Y-103315313D01*
X152671446Y-103245162D01*
X152491656Y-103209400D01*
X152308344Y-103209400D01*
X152128554Y-103245162D01*
X151959195Y-103315313D01*
X151806777Y-103417156D01*
X151677156Y-103546777D01*
X151575313Y-103699195D01*
X151505162Y-103868554D01*
X151469400Y-104048344D01*
X150934791Y-104048344D01*
X150922993Y-103928558D01*
X150861317Y-103725241D01*
X150761162Y-103537863D01*
X150626375Y-103373625D01*
X150462137Y-103238838D01*
X150274759Y-103138683D01*
X150071442Y-103077007D01*
X149912980Y-103061400D01*
X149807020Y-103061400D01*
X149648558Y-103077007D01*
X149445241Y-103138683D01*
X149257863Y-103238838D01*
X149093625Y-103373625D01*
X148958838Y-103537863D01*
X148858683Y-103725241D01*
X148843600Y-103774963D01*
X148843600Y-101965037D01*
X148858683Y-102014759D01*
X148958838Y-102202137D01*
X149093625Y-102366375D01*
X149257863Y-102501162D01*
X149445241Y-102601317D01*
X149648558Y-102662993D01*
X149807020Y-102678600D01*
X149912980Y-102678600D01*
X150071442Y-102662993D01*
X150274759Y-102601317D01*
X150462137Y-102501162D01*
X150626375Y-102366375D01*
X150761162Y-102202137D01*
X150861317Y-102014759D01*
X150922993Y-101811442D01*
X150943818Y-101600000D01*
X150934791Y-101508344D01*
X151469400Y-101508344D01*
X151469400Y-101691656D01*
X151505162Y-101871446D01*
X151575313Y-102040805D01*
X151677156Y-102193223D01*
X151806777Y-102322844D01*
X151959195Y-102424687D01*
X152128554Y-102494838D01*
X152308344Y-102530600D01*
X152491656Y-102530600D01*
X152671446Y-102494838D01*
X152840805Y-102424687D01*
X152993223Y-102322844D01*
X153122844Y-102193223D01*
X153224687Y-102040805D01*
X153294838Y-101871446D01*
X153330600Y-101691656D01*
X153330600Y-101508344D01*
X153294838Y-101328554D01*
X153224687Y-101159195D01*
X153122844Y-101006777D01*
X152993223Y-100877156D01*
X152840805Y-100775313D01*
X152671446Y-100705162D01*
X152491656Y-100669400D01*
X152308344Y-100669400D01*
X152128554Y-100705162D01*
X151959195Y-100775313D01*
X151806777Y-100877156D01*
X151677156Y-101006777D01*
X151575313Y-101159195D01*
X151505162Y-101328554D01*
X151469400Y-101508344D01*
X150934791Y-101508344D01*
X150922993Y-101388558D01*
X150861317Y-101185241D01*
X150761162Y-100997863D01*
X150626375Y-100833625D01*
X150462137Y-100698838D01*
X150274759Y-100598683D01*
X150071442Y-100537007D01*
X149912980Y-100521400D01*
X149807020Y-100521400D01*
X149648558Y-100537007D01*
X149445241Y-100598683D01*
X149257863Y-100698838D01*
X149093625Y-100833625D01*
X148958838Y-100997863D01*
X148858683Y-101185241D01*
X148843600Y-101234963D01*
X148843600Y-99425037D01*
X148858683Y-99474759D01*
X148958838Y-99662137D01*
X149093625Y-99826375D01*
X149257863Y-99961162D01*
X149445241Y-100061317D01*
X149648558Y-100122993D01*
X149807020Y-100138600D01*
X149912980Y-100138600D01*
X150071442Y-100122993D01*
X150274759Y-100061317D01*
X150462137Y-99961162D01*
X150626375Y-99826375D01*
X150761162Y-99662137D01*
X150861317Y-99474759D01*
X150922993Y-99271442D01*
X150943818Y-99060000D01*
X150934791Y-98968344D01*
X151469400Y-98968344D01*
X151469400Y-99151656D01*
X151505162Y-99331446D01*
X151575313Y-99500805D01*
X151677156Y-99653223D01*
X151806777Y-99782844D01*
X151959195Y-99884687D01*
X152128554Y-99954838D01*
X152308344Y-99990600D01*
X152491656Y-99990600D01*
X152671446Y-99954838D01*
X152840805Y-99884687D01*
X152993223Y-99782844D01*
X153122844Y-99653223D01*
X153224687Y-99500805D01*
X153294838Y-99331446D01*
X153330600Y-99151656D01*
X153330600Y-98968344D01*
X153294838Y-98788554D01*
X153224687Y-98619195D01*
X153122844Y-98466777D01*
X152993223Y-98337156D01*
X152840805Y-98235313D01*
X152671446Y-98165162D01*
X152491656Y-98129400D01*
X152308344Y-98129400D01*
X152128554Y-98165162D01*
X151959195Y-98235313D01*
X151806777Y-98337156D01*
X151677156Y-98466777D01*
X151575313Y-98619195D01*
X151505162Y-98788554D01*
X151469400Y-98968344D01*
X150934791Y-98968344D01*
X150922993Y-98848558D01*
X150861317Y-98645241D01*
X150761162Y-98457863D01*
X150626375Y-98293625D01*
X150462137Y-98158838D01*
X150274759Y-98058683D01*
X150071442Y-97997007D01*
X149912980Y-97981400D01*
X149807020Y-97981400D01*
X149648558Y-97997007D01*
X149445241Y-98058683D01*
X149257863Y-98158838D01*
X149093625Y-98293625D01*
X148958838Y-98457863D01*
X148858683Y-98645241D01*
X148843600Y-98694963D01*
X148843600Y-96885037D01*
X148858683Y-96934759D01*
X148958838Y-97122137D01*
X149093625Y-97286375D01*
X149257863Y-97421162D01*
X149445241Y-97521317D01*
X149648558Y-97582993D01*
X149807020Y-97598600D01*
X149912980Y-97598600D01*
X150071442Y-97582993D01*
X150274759Y-97521317D01*
X150462137Y-97421162D01*
X150626375Y-97286375D01*
X150761162Y-97122137D01*
X150861317Y-96934759D01*
X150922993Y-96731442D01*
X150943818Y-96520000D01*
X150934791Y-96428344D01*
X151469400Y-96428344D01*
X151469400Y-96611656D01*
X151505162Y-96791446D01*
X151575313Y-96960805D01*
X151677156Y-97113223D01*
X151806777Y-97242844D01*
X151959195Y-97344687D01*
X152128554Y-97414838D01*
X152308344Y-97450600D01*
X152491656Y-97450600D01*
X152671446Y-97414838D01*
X152840805Y-97344687D01*
X152993223Y-97242844D01*
X153122844Y-97113223D01*
X153224687Y-96960805D01*
X153294838Y-96791446D01*
X153330600Y-96611656D01*
X153330600Y-96428344D01*
X153294838Y-96248554D01*
X153224687Y-96079195D01*
X153122844Y-95926777D01*
X152993223Y-95797156D01*
X152840805Y-95695313D01*
X152671446Y-95625162D01*
X152491656Y-95589400D01*
X152308344Y-95589400D01*
X152128554Y-95625162D01*
X151959195Y-95695313D01*
X151806777Y-95797156D01*
X151677156Y-95926777D01*
X151575313Y-96079195D01*
X151505162Y-96248554D01*
X151469400Y-96428344D01*
X150934791Y-96428344D01*
X150922993Y-96308558D01*
X150861317Y-96105241D01*
X150761162Y-95917863D01*
X150626375Y-95753625D01*
X150462137Y-95618838D01*
X150274759Y-95518683D01*
X150071442Y-95457007D01*
X149912980Y-95441400D01*
X149807020Y-95441400D01*
X149648558Y-95457007D01*
X149445241Y-95518683D01*
X149257863Y-95618838D01*
X149093625Y-95753625D01*
X148958838Y-95917863D01*
X148858683Y-96105241D01*
X148843600Y-96154963D01*
X148843600Y-94345037D01*
X148858683Y-94394759D01*
X148958838Y-94582137D01*
X149093625Y-94746375D01*
X149257863Y-94881162D01*
X149445241Y-94981317D01*
X149648558Y-95042993D01*
X149807020Y-95058600D01*
X149912980Y-95058600D01*
X150071442Y-95042993D01*
X150274759Y-94981317D01*
X150462137Y-94881162D01*
X150626375Y-94746375D01*
X150761162Y-94582137D01*
X150861317Y-94394759D01*
X150922993Y-94191442D01*
X150943818Y-93980000D01*
X150934791Y-93888344D01*
X151469400Y-93888344D01*
X151469400Y-94071656D01*
X151505162Y-94251446D01*
X151575313Y-94420805D01*
X151677156Y-94573223D01*
X151806777Y-94702844D01*
X151959195Y-94804687D01*
X152128554Y-94874838D01*
X152308344Y-94910600D01*
X152491656Y-94910600D01*
X152671446Y-94874838D01*
X152840805Y-94804687D01*
X152993223Y-94702844D01*
X153122844Y-94573223D01*
X153224687Y-94420805D01*
X153294838Y-94251446D01*
X153330600Y-94071656D01*
X153330600Y-93888344D01*
X153294838Y-93708554D01*
X153224687Y-93539195D01*
X153122844Y-93386777D01*
X152993223Y-93257156D01*
X152840805Y-93155313D01*
X152671446Y-93085162D01*
X152491656Y-93049400D01*
X152308344Y-93049400D01*
X152128554Y-93085162D01*
X151959195Y-93155313D01*
X151806777Y-93257156D01*
X151677156Y-93386777D01*
X151575313Y-93539195D01*
X151505162Y-93708554D01*
X151469400Y-93888344D01*
X150934791Y-93888344D01*
X150922993Y-93768558D01*
X150861317Y-93565241D01*
X150761162Y-93377863D01*
X150626375Y-93213625D01*
X150462137Y-93078838D01*
X150274759Y-92978683D01*
X150071442Y-92917007D01*
X149912980Y-92901400D01*
X149807020Y-92901400D01*
X149648558Y-92917007D01*
X149445241Y-92978683D01*
X149257863Y-93078838D01*
X149093625Y-93213625D01*
X148958838Y-93377863D01*
X148858683Y-93565241D01*
X148843600Y-93614963D01*
X148843600Y-91805037D01*
X148858683Y-91854759D01*
X148958838Y-92042137D01*
X149093625Y-92206375D01*
X149257863Y-92341162D01*
X149445241Y-92441317D01*
X149648558Y-92502993D01*
X149807020Y-92518600D01*
X149912980Y-92518600D01*
X150071442Y-92502993D01*
X150274759Y-92441317D01*
X150462137Y-92341162D01*
X150626375Y-92206375D01*
X150761162Y-92042137D01*
X150861317Y-91854759D01*
X150922993Y-91651442D01*
X150943818Y-91440000D01*
X150922993Y-91228558D01*
X150861317Y-91025241D01*
X150761162Y-90837863D01*
X150626375Y-90673625D01*
X150462137Y-90538838D01*
X150274759Y-90438683D01*
X150071442Y-90377007D01*
X149912980Y-90361400D01*
X149807020Y-90361400D01*
X149648558Y-90377007D01*
X149445241Y-90438683D01*
X149257863Y-90538838D01*
X149093625Y-90673625D01*
X148958838Y-90837863D01*
X148858683Y-91025241D01*
X148843600Y-91074963D01*
X148843600Y-89265037D01*
X148858683Y-89314759D01*
X148958838Y-89502137D01*
X149093625Y-89666375D01*
X149257863Y-89801162D01*
X149445241Y-89901317D01*
X149648558Y-89962993D01*
X149807020Y-89978600D01*
X149912980Y-89978600D01*
X150071442Y-89962993D01*
X150274759Y-89901317D01*
X150462137Y-89801162D01*
X150626375Y-89666375D01*
X150761162Y-89502137D01*
X150861317Y-89314759D01*
X150922993Y-89111442D01*
X150943818Y-88900000D01*
X150934791Y-88808344D01*
X151469400Y-88808344D01*
X151469400Y-88991656D01*
X151505162Y-89171446D01*
X151575313Y-89340805D01*
X151677156Y-89493223D01*
X151806777Y-89622844D01*
X151959195Y-89724687D01*
X152128554Y-89794838D01*
X152308344Y-89830600D01*
X152491656Y-89830600D01*
X152671446Y-89794838D01*
X152743453Y-89765012D01*
X152742583Y-89773844D01*
X152742583Y-89773851D01*
X152741110Y-89788809D01*
X152742583Y-89803767D01*
X152742583Y-89949136D01*
X152683073Y-89988900D01*
X152603470Y-90068503D01*
X152540926Y-90162106D01*
X152497846Y-90266113D01*
X152475883Y-90376525D01*
X152475883Y-90489101D01*
X152479921Y-90509400D01*
X152308344Y-90509400D01*
X152128554Y-90545162D01*
X151959195Y-90615313D01*
X151806777Y-90717156D01*
X151677156Y-90846777D01*
X151575313Y-90999195D01*
X151505162Y-91168554D01*
X151469400Y-91348344D01*
X151469400Y-91531656D01*
X151505162Y-91711446D01*
X151575313Y-91880805D01*
X151677156Y-92033223D01*
X151806777Y-92162844D01*
X151959195Y-92264687D01*
X152128554Y-92334838D01*
X152308344Y-92370600D01*
X152491656Y-92370600D01*
X152671446Y-92334838D01*
X152840805Y-92264687D01*
X152993223Y-92162844D01*
X153122844Y-92033223D01*
X153224687Y-91880805D01*
X153294838Y-91711446D01*
X153330600Y-91531656D01*
X153330600Y-91348344D01*
X153294838Y-91168554D01*
X153224687Y-90999195D01*
X153213508Y-90982464D01*
X153214083Y-90982350D01*
X153318090Y-90939270D01*
X153411693Y-90876726D01*
X153491296Y-90797123D01*
X153553840Y-90703520D01*
X153596920Y-90599513D01*
X153603052Y-90568686D01*
X153617990Y-90574873D01*
X153728402Y-90596836D01*
X153840978Y-90596836D01*
X153951390Y-90574873D01*
X154051401Y-90533448D01*
X154051400Y-104762541D01*
X154050173Y-104775000D01*
X154055069Y-104824714D01*
X154069571Y-104872518D01*
X154087668Y-104906375D01*
X154093119Y-104916574D01*
X154124810Y-104955190D01*
X154163426Y-104986881D01*
X154207482Y-105010429D01*
X154255286Y-105024931D01*
X154305000Y-105029827D01*
X154317459Y-105028600D01*
X165722541Y-105028600D01*
X165735000Y-105029827D01*
X165784714Y-105024931D01*
X165832518Y-105010429D01*
X165876574Y-104986881D01*
X165915190Y-104955190D01*
X165946881Y-104916574D01*
X165970429Y-104872518D01*
X165984931Y-104824714D01*
X165988600Y-104787459D01*
X165988600Y-104787458D01*
X165989827Y-104775000D01*
X165988600Y-104762541D01*
X165988600Y-98968344D01*
X166709400Y-98968344D01*
X166709400Y-99151656D01*
X166745162Y-99331446D01*
X166815313Y-99500805D01*
X166917156Y-99653223D01*
X167046777Y-99782844D01*
X167199195Y-99884687D01*
X167368554Y-99954838D01*
X167548344Y-99990600D01*
X167731656Y-99990600D01*
X167911446Y-99954838D01*
X168080805Y-99884687D01*
X168233223Y-99782844D01*
X168362844Y-99653223D01*
X168464687Y-99500805D01*
X168534838Y-99331446D01*
X168570600Y-99151656D01*
X168570600Y-98968344D01*
X168534838Y-98788554D01*
X168464687Y-98619195D01*
X168362844Y-98466777D01*
X168233223Y-98337156D01*
X168080805Y-98235313D01*
X167911446Y-98165162D01*
X167731656Y-98129400D01*
X167548344Y-98129400D01*
X167368554Y-98165162D01*
X167199195Y-98235313D01*
X167046777Y-98337156D01*
X166917156Y-98466777D01*
X166815313Y-98619195D01*
X166745162Y-98788554D01*
X166709400Y-98968344D01*
X165988600Y-98968344D01*
X165988600Y-96428344D01*
X166709400Y-96428344D01*
X166709400Y-96611656D01*
X166745162Y-96791446D01*
X166815313Y-96960805D01*
X166917156Y-97113223D01*
X167046777Y-97242844D01*
X167199195Y-97344687D01*
X167368554Y-97414838D01*
X167548344Y-97450600D01*
X167731656Y-97450600D01*
X167911446Y-97414838D01*
X168080805Y-97344687D01*
X168233223Y-97242844D01*
X168362844Y-97113223D01*
X168464687Y-96960805D01*
X168534838Y-96791446D01*
X168570600Y-96611656D01*
X168570600Y-96428344D01*
X168534838Y-96248554D01*
X168464687Y-96079195D01*
X168362844Y-95926777D01*
X168233223Y-95797156D01*
X168080805Y-95695313D01*
X167911446Y-95625162D01*
X167731656Y-95589400D01*
X167548344Y-95589400D01*
X167368554Y-95625162D01*
X167199195Y-95695313D01*
X167046777Y-95797156D01*
X166917156Y-95926777D01*
X166815313Y-96079195D01*
X166745162Y-96248554D01*
X166709400Y-96428344D01*
X165988600Y-96428344D01*
X165988600Y-93888344D01*
X166709400Y-93888344D01*
X166709400Y-94071656D01*
X166745162Y-94251446D01*
X166815313Y-94420805D01*
X166917156Y-94573223D01*
X167046777Y-94702844D01*
X167199195Y-94804687D01*
X167368554Y-94874838D01*
X167548344Y-94910600D01*
X167731656Y-94910600D01*
X167911446Y-94874838D01*
X168080805Y-94804687D01*
X168233223Y-94702844D01*
X168362844Y-94573223D01*
X168464687Y-94420805D01*
X168534838Y-94251446D01*
X168570600Y-94071656D01*
X168570600Y-93888344D01*
X168534838Y-93708554D01*
X168464687Y-93539195D01*
X168362844Y-93386777D01*
X168233223Y-93257156D01*
X168080805Y-93155313D01*
X167911446Y-93085162D01*
X167731656Y-93049400D01*
X167548344Y-93049400D01*
X167368554Y-93085162D01*
X167199195Y-93155313D01*
X167046777Y-93257156D01*
X166917156Y-93386777D01*
X166815313Y-93539195D01*
X166745162Y-93708554D01*
X166709400Y-93888344D01*
X165988600Y-93888344D01*
X165988600Y-91348344D01*
X166709400Y-91348344D01*
X166709400Y-91531656D01*
X166745162Y-91711446D01*
X166815313Y-91880805D01*
X166917156Y-92033223D01*
X167046777Y-92162844D01*
X167199195Y-92264687D01*
X167368554Y-92334838D01*
X167548344Y-92370600D01*
X167731656Y-92370600D01*
X167911446Y-92334838D01*
X168080805Y-92264687D01*
X168233223Y-92162844D01*
X168362844Y-92033223D01*
X168464687Y-91880805D01*
X168482318Y-91838239D01*
X168802199Y-91838239D01*
X168813144Y-91874344D01*
X168924144Y-92132659D01*
X169083406Y-92364355D01*
X169284810Y-92560529D01*
X169520615Y-92713641D01*
X169781760Y-92817808D01*
X170002200Y-92717093D01*
X170002200Y-91617800D01*
X168904180Y-91617800D01*
X168802199Y-91838239D01*
X168482318Y-91838239D01*
X168534838Y-91711446D01*
X168570600Y-91531656D01*
X168570600Y-91348344D01*
X168534838Y-91168554D01*
X168464687Y-90999195D01*
X168362844Y-90846777D01*
X168233223Y-90717156D01*
X168080805Y-90615313D01*
X167911446Y-90545162D01*
X167731656Y-90509400D01*
X167548344Y-90509400D01*
X167368554Y-90545162D01*
X167199195Y-90615313D01*
X167046777Y-90717156D01*
X166917156Y-90846777D01*
X166815313Y-90999195D01*
X166745162Y-91168554D01*
X166709400Y-91348344D01*
X165988600Y-91348344D01*
X165988600Y-88808344D01*
X166709400Y-88808344D01*
X166709400Y-88991656D01*
X166745162Y-89171446D01*
X166815313Y-89340805D01*
X166917156Y-89493223D01*
X167046777Y-89622844D01*
X167199195Y-89724687D01*
X167368554Y-89794838D01*
X167548344Y-89830600D01*
X167731656Y-89830600D01*
X167911446Y-89794838D01*
X168080805Y-89724687D01*
X168233223Y-89622844D01*
X168362844Y-89493223D01*
X168464687Y-89340805D01*
X168482318Y-89298239D01*
X168802199Y-89298239D01*
X168813144Y-89334344D01*
X168924144Y-89592659D01*
X169083406Y-89824355D01*
X169284810Y-90020529D01*
X169515008Y-90170000D01*
X169284810Y-90319471D01*
X169083406Y-90515645D01*
X168924144Y-90747341D01*
X168813144Y-91005656D01*
X168802199Y-91041761D01*
X168904180Y-91262200D01*
X170002200Y-91262200D01*
X170002200Y-89077800D01*
X168904180Y-89077800D01*
X168802199Y-89298239D01*
X168482318Y-89298239D01*
X168534838Y-89171446D01*
X168570600Y-88991656D01*
X168570600Y-88808344D01*
X168534838Y-88628554D01*
X168482319Y-88501761D01*
X168802199Y-88501761D01*
X168904180Y-88722200D01*
X170002200Y-88722200D01*
X170002200Y-87622907D01*
X169781760Y-87522192D01*
X169520615Y-87626359D01*
X169284810Y-87779471D01*
X169083406Y-87975645D01*
X168924144Y-88207341D01*
X168813144Y-88465656D01*
X168802199Y-88501761D01*
X168482319Y-88501761D01*
X168464687Y-88459195D01*
X168362844Y-88306777D01*
X168233223Y-88177156D01*
X168080805Y-88075313D01*
X167911446Y-88005162D01*
X167731656Y-87969400D01*
X167548344Y-87969400D01*
X167368554Y-88005162D01*
X167199195Y-88075313D01*
X167046777Y-88177156D01*
X166917156Y-88306777D01*
X166815313Y-88459195D01*
X166745162Y-88628554D01*
X166709400Y-88808344D01*
X165988600Y-88808344D01*
X165988600Y-88429859D01*
X165989827Y-88417400D01*
X165984931Y-88367686D01*
X165970429Y-88319882D01*
X165946881Y-88275826D01*
X165915190Y-88237210D01*
X165876574Y-88205519D01*
X165832518Y-88181971D01*
X165784714Y-88167469D01*
X165747459Y-88163800D01*
X165735000Y-88162573D01*
X165722541Y-88163800D01*
X164151706Y-88163800D01*
X164151706Y-88016400D01*
X164147292Y-87971587D01*
X164134221Y-87928495D01*
X164112994Y-87888782D01*
X164084427Y-87853973D01*
X164049618Y-87825406D01*
X164009905Y-87804179D01*
X163966813Y-87791108D01*
X163922000Y-87786694D01*
X163118000Y-87786694D01*
X163073187Y-87791108D01*
X163030095Y-87804179D01*
X163020000Y-87809575D01*
X163009905Y-87804179D01*
X162966813Y-87791108D01*
X162922000Y-87786694D01*
X162461637Y-87786694D01*
X162410095Y-87690265D01*
X162337091Y-87601309D01*
X162248135Y-87528305D01*
X162146646Y-87474058D01*
X162036523Y-87440653D01*
X161922000Y-87429373D01*
X161843850Y-87432200D01*
X161697800Y-87578250D01*
X161697800Y-88163800D01*
X161342200Y-88163800D01*
X161342200Y-87578250D01*
X161196150Y-87432200D01*
X161118000Y-87429373D01*
X161003477Y-87440653D01*
X160893354Y-87474058D01*
X160791865Y-87528305D01*
X160702909Y-87601309D01*
X160629905Y-87690265D01*
X160578363Y-87786694D01*
X160118000Y-87786694D01*
X160073187Y-87791108D01*
X160030095Y-87804179D01*
X160020000Y-87809575D01*
X160009905Y-87804179D01*
X159966813Y-87791108D01*
X159922000Y-87786694D01*
X159118000Y-87786694D01*
X159073187Y-87791108D01*
X159030095Y-87804179D01*
X159020000Y-87809575D01*
X159009905Y-87804179D01*
X158966813Y-87791108D01*
X158922000Y-87786694D01*
X158118000Y-87786694D01*
X158073187Y-87791108D01*
X158030095Y-87804179D01*
X158020000Y-87809575D01*
X158009905Y-87804179D01*
X157966813Y-87791108D01*
X157922000Y-87786694D01*
X157824800Y-87786694D01*
X157824800Y-87761158D01*
X157826273Y-87746200D01*
X157824800Y-87731242D01*
X157824800Y-87731234D01*
X157820389Y-87686449D01*
X157802960Y-87628994D01*
X157774658Y-87576043D01*
X157736568Y-87529632D01*
X157724939Y-87520088D01*
X157655312Y-87450461D01*
X157645768Y-87438832D01*
X157599357Y-87400742D01*
X157546406Y-87372440D01*
X157488951Y-87355011D01*
X157444166Y-87350600D01*
X157444158Y-87350600D01*
X157429200Y-87349127D01*
X157414242Y-87350600D01*
X154218358Y-87350600D01*
X154203400Y-87349127D01*
X154188442Y-87350600D01*
X154188434Y-87350600D01*
X154148803Y-87354503D01*
X154143648Y-87355011D01*
X154122861Y-87361317D01*
X154086194Y-87372440D01*
X154033243Y-87400742D01*
X153986832Y-87438832D01*
X153977292Y-87450456D01*
X153236461Y-88191288D01*
X153224832Y-88200832D01*
X153186742Y-88247244D01*
X153164639Y-88288598D01*
X153158440Y-88300195D01*
X153145952Y-88341361D01*
X153122844Y-88306777D01*
X152993223Y-88177156D01*
X152840805Y-88075313D01*
X152671446Y-88005162D01*
X152491656Y-87969400D01*
X152308344Y-87969400D01*
X152128554Y-88005162D01*
X151959195Y-88075313D01*
X151806777Y-88177156D01*
X151677156Y-88306777D01*
X151575313Y-88459195D01*
X151505162Y-88628554D01*
X151469400Y-88808344D01*
X150934791Y-88808344D01*
X150922993Y-88688558D01*
X150861317Y-88485241D01*
X150761162Y-88297863D01*
X150626375Y-88133625D01*
X150462137Y-87998838D01*
X150274759Y-87898683D01*
X150071442Y-87837007D01*
X149912980Y-87821400D01*
X149807020Y-87821400D01*
X149648558Y-87837007D01*
X149445241Y-87898683D01*
X149257863Y-87998838D01*
X149093625Y-88133625D01*
X148958838Y-88297863D01*
X148858683Y-88485241D01*
X148843600Y-88534963D01*
X148843600Y-87362467D01*
X148964810Y-87480529D01*
X149200615Y-87633641D01*
X149461760Y-87737808D01*
X149682200Y-87637093D01*
X149682200Y-86537800D01*
X150037800Y-86537800D01*
X150037800Y-87637093D01*
X150258240Y-87737808D01*
X150519385Y-87633641D01*
X150755190Y-87480529D01*
X150956594Y-87284355D01*
X151115856Y-87052659D01*
X151226856Y-86794344D01*
X151237801Y-86758239D01*
X151135820Y-86537800D01*
X150037800Y-86537800D01*
X149682200Y-86537800D01*
X149662200Y-86537800D01*
X149662200Y-86268344D01*
X151469400Y-86268344D01*
X151469400Y-86451656D01*
X151505162Y-86631446D01*
X151575313Y-86800805D01*
X151677156Y-86953223D01*
X151806777Y-87082844D01*
X151959195Y-87184687D01*
X152128554Y-87254838D01*
X152308344Y-87290600D01*
X152491656Y-87290600D01*
X152671446Y-87254838D01*
X152840805Y-87184687D01*
X152993223Y-87082844D01*
X153122844Y-86953223D01*
X153224687Y-86800805D01*
X153294838Y-86631446D01*
X153330600Y-86451656D01*
X153330600Y-86268344D01*
X166709400Y-86268344D01*
X166709400Y-86451656D01*
X166745162Y-86631446D01*
X166815313Y-86800805D01*
X166917156Y-86953223D01*
X167046777Y-87082844D01*
X167199195Y-87184687D01*
X167368554Y-87254838D01*
X167548344Y-87290600D01*
X167731656Y-87290600D01*
X167911446Y-87254838D01*
X168080805Y-87184687D01*
X168233223Y-87082844D01*
X168362844Y-86953223D01*
X168464687Y-86800805D01*
X168534838Y-86631446D01*
X168570600Y-86451656D01*
X168570600Y-86268344D01*
X168534838Y-86088554D01*
X168464687Y-85919195D01*
X168362844Y-85766777D01*
X168233223Y-85637156D01*
X168080805Y-85535313D01*
X167911446Y-85465162D01*
X167731656Y-85429400D01*
X167548344Y-85429400D01*
X167368554Y-85465162D01*
X167199195Y-85535313D01*
X167046777Y-85637156D01*
X166917156Y-85766777D01*
X166815313Y-85919195D01*
X166745162Y-86088554D01*
X166709400Y-86268344D01*
X153330600Y-86268344D01*
X153294838Y-86088554D01*
X153224687Y-85919195D01*
X153122844Y-85766777D01*
X152993223Y-85637156D01*
X152840805Y-85535313D01*
X152671446Y-85465162D01*
X152491656Y-85429400D01*
X152308344Y-85429400D01*
X152128554Y-85465162D01*
X151959195Y-85535313D01*
X151806777Y-85637156D01*
X151677156Y-85766777D01*
X151575313Y-85919195D01*
X151505162Y-86088554D01*
X151469400Y-86268344D01*
X149662200Y-86268344D01*
X149662200Y-86182200D01*
X149682200Y-86182200D01*
X149682200Y-85082907D01*
X150037800Y-85082907D01*
X150037800Y-86182200D01*
X151135820Y-86182200D01*
X151237801Y-85961761D01*
X151226856Y-85925656D01*
X151115856Y-85667341D01*
X150956594Y-85435645D01*
X150755190Y-85239471D01*
X150519385Y-85086359D01*
X150258240Y-84982192D01*
X150037800Y-85082907D01*
X149682200Y-85082907D01*
X149461760Y-84982192D01*
X149200615Y-85086359D01*
X148964810Y-85239471D01*
X148843600Y-85357533D01*
X148843600Y-84185037D01*
X148858683Y-84234759D01*
X148958838Y-84422137D01*
X149093625Y-84586375D01*
X149257863Y-84721162D01*
X149445241Y-84821317D01*
X149648558Y-84882993D01*
X149807020Y-84898600D01*
X149912980Y-84898600D01*
X150071442Y-84882993D01*
X150274759Y-84821317D01*
X150462137Y-84721162D01*
X150626375Y-84586375D01*
X150761162Y-84422137D01*
X150861317Y-84234759D01*
X150922993Y-84031442D01*
X150943818Y-83820000D01*
X150934791Y-83728344D01*
X151469400Y-83728344D01*
X151469400Y-83911656D01*
X151505162Y-84091446D01*
X151575313Y-84260805D01*
X151677156Y-84413223D01*
X151806777Y-84542844D01*
X151959195Y-84644687D01*
X152128554Y-84714838D01*
X152308344Y-84750600D01*
X152491656Y-84750600D01*
X152671446Y-84714838D01*
X152840805Y-84644687D01*
X152993223Y-84542844D01*
X153122844Y-84413223D01*
X153224687Y-84260805D01*
X153294838Y-84091446D01*
X153330600Y-83911656D01*
X153330600Y-83728344D01*
X153294838Y-83548554D01*
X153224687Y-83379195D01*
X153122844Y-83226777D01*
X152993223Y-83097156D01*
X152840805Y-82995313D01*
X152671446Y-82925162D01*
X152491656Y-82889400D01*
X152308344Y-82889400D01*
X152128554Y-82925162D01*
X151959195Y-82995313D01*
X151806777Y-83097156D01*
X151677156Y-83226777D01*
X151575313Y-83379195D01*
X151505162Y-83548554D01*
X151469400Y-83728344D01*
X150934791Y-83728344D01*
X150922993Y-83608558D01*
X150861317Y-83405241D01*
X150761162Y-83217863D01*
X150626375Y-83053625D01*
X150462137Y-82918838D01*
X150274759Y-82818683D01*
X150071442Y-82757007D01*
X149912980Y-82741400D01*
X149807020Y-82741400D01*
X149648558Y-82757007D01*
X149445241Y-82818683D01*
X149257863Y-82918838D01*
X149093625Y-83053625D01*
X148958838Y-83217863D01*
X148858683Y-83405241D01*
X148843600Y-83454963D01*
X148843600Y-81644711D01*
X148904157Y-81790909D01*
X149022197Y-81967567D01*
X149172433Y-82117803D01*
X149349091Y-82235843D01*
X149545384Y-82317150D01*
X149753767Y-82358600D01*
X149966233Y-82358600D01*
X150174616Y-82317150D01*
X150370909Y-82235843D01*
X150414789Y-82206523D01*
X151724924Y-82206523D01*
X151791399Y-82420159D01*
X152025527Y-82516984D01*
X152274046Y-82566271D01*
X152527405Y-82566128D01*
X152775868Y-82516560D01*
X153008601Y-82420159D01*
X153075076Y-82206523D01*
X152400000Y-81531447D01*
X151724924Y-82206523D01*
X150414789Y-82206523D01*
X150547567Y-82117803D01*
X150697803Y-81967567D01*
X150815843Y-81790909D01*
X150897150Y-81594616D01*
X150938600Y-81386233D01*
X150938600Y-81173767D01*
X150934678Y-81154046D01*
X151113729Y-81154046D01*
X151113872Y-81407405D01*
X151163440Y-81655868D01*
X151259841Y-81888601D01*
X151473477Y-81955076D01*
X152148553Y-81280000D01*
X152651447Y-81280000D01*
X153326523Y-81955076D01*
X153540159Y-81888601D01*
X153636984Y-81654473D01*
X153686271Y-81405954D01*
X153686128Y-81152595D01*
X153636560Y-80904132D01*
X153540159Y-80671399D01*
X153326523Y-80604924D01*
X152651447Y-81280000D01*
X152148553Y-81280000D01*
X151473477Y-80604924D01*
X151259841Y-80671399D01*
X151163016Y-80905527D01*
X151113729Y-81154046D01*
X150934678Y-81154046D01*
X150897150Y-80965384D01*
X150815843Y-80769091D01*
X150697803Y-80592433D01*
X150547567Y-80442197D01*
X150370909Y-80324157D01*
X150224711Y-80263600D01*
X151752890Y-80263600D01*
X151724924Y-80353477D01*
M02*
