G04 #@! TF.GenerationSoftware,KiCad,Pcbnew,(5.1.4)-1*
G04 #@! TF.CreationDate,2019-11-09T18:50:37+08:00*
G04 #@! TF.ProjectId,teensy4_header_breakout,7465656e-7379-4345-9f68-65616465725f,rev?*
G04 #@! TF.SameCoordinates,Original*
G04 #@! TF.FileFunction,Copper,L1,Top*
G04 #@! TF.FilePolarity,Positive*
%FSLAX46Y46*%
G04 Gerber Fmt 4.6, Leading zero omitted, Abs format (unit mm)*
G04 Created by KiCad (PCBNEW (5.1.4)-1) date 2019-11-09 18:50:37*
%MOMM*%
%LPD*%
G04 APERTURE LIST*
%ADD10C,1.404000*%
%ADD11R,1.404000X1.404000*%
%ADD12R,1.304000X1.304000*%
%ADD13R,0.804000X0.804000*%
%ADD14O,1.700000X1.700000*%
%ADD15C,1.700000*%
%ADD16C,0.685800*%
%ADD17C,0.152400*%
%ADD18C,0.457200*%
%ADD19C,0.304800*%
G04 APERTURE END LIST*
D10*
X152400000Y-111760000D03*
X167640000Y-81280000D03*
X165100000Y-83820000D03*
X167640000Y-83820000D03*
X167640000Y-86360000D03*
X167640000Y-88900000D03*
X167640000Y-91440000D03*
X167640000Y-93980000D03*
X167640000Y-96520000D03*
X167640000Y-99060000D03*
X167640000Y-101600000D03*
X167640000Y-104140000D03*
X167640000Y-106680000D03*
X167640000Y-109220000D03*
X167640000Y-111760000D03*
X167640000Y-114300000D03*
D11*
X165100000Y-114300000D03*
X162560000Y-114300000D03*
X160020000Y-114300000D03*
X157480000Y-114300000D03*
X154940000Y-114300000D03*
D10*
X152400000Y-114300000D03*
X152400000Y-109220000D03*
X152400000Y-106680000D03*
X152400000Y-104140000D03*
X152400000Y-101600000D03*
X152400000Y-99060000D03*
X152400000Y-96520000D03*
X152400000Y-93980000D03*
X152400000Y-91440000D03*
X152400000Y-88900000D03*
X152400000Y-86360000D03*
D12*
X158750000Y-81915000D03*
X161290000Y-81915000D03*
D13*
X156520000Y-88418400D03*
X157520000Y-88418400D03*
X158520000Y-88418400D03*
X159520000Y-88418400D03*
X160520000Y-88418400D03*
X161520000Y-88418400D03*
X162520000Y-88418400D03*
X163520000Y-88418400D03*
D12*
X154940000Y-106680000D03*
X154940000Y-109220000D03*
X157480000Y-106680000D03*
X157480000Y-109220000D03*
X160020000Y-106680000D03*
X160020000Y-109220000D03*
X162560000Y-106680000D03*
X162560000Y-109220000D03*
X165100000Y-106680000D03*
X165100000Y-109220000D03*
D10*
X152400000Y-83820000D03*
X152400000Y-81280000D03*
D14*
X170180000Y-81280000D03*
X170180000Y-83820000D03*
X170180000Y-86360000D03*
X170180000Y-88900000D03*
X170180000Y-91440000D03*
X170180000Y-93980000D03*
X170180000Y-96520000D03*
X170180000Y-99060000D03*
X170180000Y-101600000D03*
X170180000Y-104140000D03*
X170180000Y-106680000D03*
X170180000Y-109220000D03*
X170180000Y-111760000D03*
D15*
X170180000Y-114300000D03*
D14*
X149860000Y-114300000D03*
X149860000Y-111760000D03*
X149860000Y-109220000D03*
X149860000Y-106680000D03*
X149860000Y-104140000D03*
X149860000Y-101600000D03*
X149860000Y-99060000D03*
X149860000Y-96520000D03*
X149860000Y-93980000D03*
X149860000Y-91440000D03*
X149860000Y-88900000D03*
X149860000Y-86360000D03*
X149860000Y-83820000D03*
D15*
X149860000Y-81280000D03*
D16*
X153047383Y-90432813D03*
X153784690Y-90025336D03*
X166316146Y-111220054D03*
X166522400Y-110388400D03*
D17*
X154009399Y-113369399D02*
X154686390Y-114046390D01*
X150790601Y-113369399D02*
X154009399Y-113369399D01*
X149860000Y-114300000D02*
X150790601Y-113369399D01*
D18*
X153856999Y-113216999D02*
X154533990Y-113893990D01*
X150943001Y-113216999D02*
X153856999Y-113216999D01*
X149860000Y-114300000D02*
X150943001Y-113216999D01*
D17*
X154009399Y-110150601D02*
X154686390Y-109473610D01*
X151992682Y-110150601D02*
X154009399Y-110150601D01*
X151062081Y-109220000D02*
X151992682Y-110150601D01*
X149860000Y-109220000D02*
X151062081Y-109220000D01*
X150790601Y-110829399D02*
X155870601Y-110829399D01*
X155870601Y-110829399D02*
X157226390Y-109473610D01*
X149860000Y-111760000D02*
X150790601Y-110829399D01*
X154009399Y-105749399D02*
X154686390Y-106426390D01*
X150790601Y-105749399D02*
X154009399Y-105749399D01*
X149860000Y-106680000D02*
X150790601Y-105749399D01*
X151164588Y-105444588D02*
X156244588Y-105444588D01*
X149860000Y-104140000D02*
X151164588Y-105444588D01*
X156244588Y-105444588D02*
X157226390Y-106426390D01*
X158410601Y-105070601D02*
X159766390Y-106426390D01*
X151155400Y-104546400D02*
X151679601Y-105070601D01*
X151679601Y-105070601D02*
X158410601Y-105070601D01*
X151155400Y-102895400D02*
X151155400Y-104546400D01*
X149860000Y-101600000D02*
X151155400Y-102895400D01*
X163398590Y-88138390D02*
X163520000Y-88138390D01*
X151422100Y-83654900D02*
X151422100Y-84219390D01*
X160010801Y-84750601D02*
X163398590Y-88138390D01*
X151953311Y-84750601D02*
X160010801Y-84750601D01*
X151422100Y-84219390D02*
X151953311Y-84750601D01*
X149860000Y-82092800D02*
X151422100Y-83654900D01*
X149860000Y-81280000D02*
X149860000Y-82092800D01*
X159562800Y-85064600D02*
X162520000Y-88021800D01*
X162520000Y-88021800D02*
X162520000Y-88138390D01*
X151104600Y-85064600D02*
X159562800Y-85064600D01*
X149860000Y-83820000D02*
X151104600Y-85064600D01*
X158174999Y-85429399D02*
X160520000Y-87774400D01*
X150709999Y-87378010D02*
X151282400Y-86805609D01*
X151282400Y-86100310D02*
X151953311Y-85429399D01*
X160520000Y-87774400D02*
X160520000Y-88138390D01*
X151953311Y-85429399D02*
X158174999Y-85429399D01*
X151282400Y-86805609D02*
X151282400Y-86100310D01*
X150709999Y-88050001D02*
X150709999Y-87378010D01*
X149860000Y-88900000D02*
X150709999Y-88050001D01*
D18*
X158998611Y-87330589D02*
X159520000Y-87851978D01*
X154198011Y-87330589D02*
X158998611Y-87330589D01*
X152254157Y-87443001D02*
X154085599Y-87443001D01*
X149860000Y-91440000D02*
X151091001Y-90208999D01*
X154085599Y-87443001D02*
X154198011Y-87330589D01*
X151091001Y-88606157D02*
X152254157Y-87443001D01*
X151091001Y-90208999D02*
X151091001Y-88606157D01*
X159520000Y-87851978D02*
X159520000Y-88265390D01*
D17*
X153785417Y-87960209D02*
X153810817Y-87985609D01*
X158349000Y-87787800D02*
X158520000Y-87958800D01*
X155764383Y-87985609D02*
X155962192Y-87787800D01*
X153810817Y-87985609D02*
X155764383Y-87985609D01*
X155962192Y-87787800D02*
X158349000Y-87787800D01*
X158520000Y-87958800D02*
X158520000Y-88138390D01*
X151469399Y-90993311D02*
X151953311Y-90509399D01*
X153517600Y-88214200D02*
X153746191Y-87985609D01*
X153013488Y-89861312D02*
X153517600Y-89357200D01*
X152773062Y-89861312D02*
X153013488Y-89861312D01*
X152552400Y-89865200D02*
X152769174Y-89865200D01*
X153517600Y-89357200D02*
X153517600Y-88214200D01*
X152769174Y-89865200D02*
X152773062Y-89861312D01*
X151953311Y-90509399D02*
X151953311Y-90464289D01*
X151469399Y-92370601D02*
X151469399Y-90993311D01*
X151953311Y-90464289D02*
X152552400Y-89865200D01*
X153746191Y-87985609D02*
X153810817Y-87985609D01*
X149860000Y-93980000D02*
X151469399Y-92370601D01*
X151953311Y-92370601D02*
X152846689Y-92370601D01*
X152846689Y-92370601D02*
X153390282Y-91827008D01*
X150938601Y-93385311D02*
X151953311Y-92370601D01*
X150938601Y-95441399D02*
X150938601Y-93385311D01*
X153390282Y-91827008D02*
X153390282Y-90775712D01*
X149860000Y-96520000D02*
X150938601Y-95441399D01*
X153390282Y-90775712D02*
X153047383Y-90432813D01*
X153784690Y-90510269D02*
X153784690Y-90025336D01*
X153784690Y-94551110D02*
X153784690Y-90510269D01*
X151892000Y-95224600D02*
X153111200Y-95224600D01*
X149860000Y-99060000D02*
X151307800Y-97612200D01*
X151307800Y-97612200D02*
X151307800Y-95808800D01*
X151307800Y-95808800D02*
X151892000Y-95224600D01*
X153111200Y-95224600D02*
X153784690Y-94551110D01*
X170180000Y-83820000D02*
X168850790Y-82490790D01*
X168850790Y-82490790D02*
X161865790Y-82490790D01*
X161865790Y-82490790D02*
X161543610Y-82168610D01*
X158750000Y-82550000D02*
X158750000Y-82168610D01*
X168910000Y-83712710D02*
X167992891Y-82795601D01*
X167992891Y-82795601D02*
X158995601Y-82795601D01*
X170180000Y-86360000D02*
X168910000Y-85090000D01*
X168910000Y-85090000D02*
X168910000Y-83712710D01*
X158995601Y-82795601D02*
X158750000Y-82550000D01*
X170180000Y-96520000D02*
X168875412Y-97824588D01*
X168875412Y-104712945D02*
X167838958Y-105749399D01*
X167838958Y-105749399D02*
X166030601Y-105749399D01*
X168875412Y-97824588D02*
X168875412Y-104712945D01*
X166030601Y-105749399D02*
X165353610Y-106426390D01*
X167712701Y-105444589D02*
X165904345Y-105444589D01*
X168570601Y-104586689D02*
X167712701Y-105444589D01*
X170180000Y-93980000D02*
X168570601Y-95589399D01*
X168570601Y-95589399D02*
X168570601Y-104586689D01*
X165904345Y-105444589D02*
X165888134Y-105460800D01*
X163779200Y-105460800D02*
X162813610Y-106426390D01*
X165888134Y-105460800D02*
X163779200Y-105460800D01*
X165831213Y-111220054D02*
X166316146Y-111220054D01*
X162020054Y-111220054D02*
X165831213Y-111220054D01*
X160273610Y-109473610D02*
X162020054Y-111220054D01*
X166037467Y-110388400D02*
X166522400Y-110388400D01*
X163474790Y-110388400D02*
X166037467Y-110388400D01*
X162560000Y-109473610D02*
X163474790Y-110388400D01*
X168570601Y-107805487D02*
X168086689Y-108289399D01*
X170180000Y-104140000D02*
X168570601Y-105749399D01*
X168570601Y-105749399D02*
X168570601Y-107805487D01*
X167193311Y-108289399D02*
X166709399Y-108773311D01*
X166707592Y-109473610D02*
X165353610Y-109473610D01*
X168086689Y-108289399D02*
X167193311Y-108289399D01*
X166709399Y-109471803D02*
X166707592Y-109473610D01*
X166709399Y-108773311D02*
X166709399Y-109471803D01*
X163490601Y-113369399D02*
X162813610Y-114046390D01*
X168570601Y-113369399D02*
X163490601Y-113369399D01*
X170180000Y-111760000D02*
X168570601Y-113369399D01*
D18*
X168159841Y-112843001D02*
X158936999Y-112843001D01*
X168948999Y-112053843D02*
X168159841Y-112843001D01*
X168948999Y-108629119D02*
X168948999Y-112053843D01*
X170180000Y-106680000D02*
X169330001Y-107529999D01*
X169330001Y-108248117D02*
X168948999Y-108629119D01*
X169330001Y-107529999D02*
X169330001Y-108248117D01*
X158936999Y-112843001D02*
X157886010Y-113893990D01*
D19*
X149860000Y-86360000D02*
X149910800Y-86360000D01*
M02*
