G04 #@! TF.GenerationSoftware,KiCad,Pcbnew,(5.1.4)-1*
G04 #@! TF.CreationDate,2019-11-09T18:50:37+08:00*
G04 #@! TF.ProjectId,teensy4_header_breakout,7465656e-7379-4345-9f68-65616465725f,rev?*
G04 #@! TF.SameCoordinates,Original*
G04 #@! TF.FileFunction,Other,ECO1*
%FSLAX46Y46*%
G04 Gerber Fmt 4.6, Leading zero omitted, Abs format (unit mm)*
G04 Created by KiCad (PCBNEW (5.1.4)-1) date 2019-11-09 18:50:37*
%MOMM*%
%LPD*%
G04 APERTURE LIST*
%ADD10C,0.100000*%
G04 APERTURE END LIST*
D10*
G36*
X156770000Y-88290000D02*
G01*
X156770000Y-90290000D01*
X156270000Y-90290000D01*
X156270000Y-88290000D01*
X156770000Y-88290000D01*
G37*
X156770000Y-88290000D02*
X156770000Y-90290000D01*
X156270000Y-90290000D01*
X156270000Y-88290000D01*
X156770000Y-88290000D01*
G36*
X157770000Y-88290000D02*
G01*
X157770000Y-90290000D01*
X157270000Y-90290000D01*
X157270000Y-88290000D01*
X157770000Y-88290000D01*
G37*
X157770000Y-88290000D02*
X157770000Y-90290000D01*
X157270000Y-90290000D01*
X157270000Y-88290000D01*
X157770000Y-88290000D01*
G36*
X158770000Y-88290000D02*
G01*
X158770000Y-90290000D01*
X158270000Y-90290000D01*
X158270000Y-88290000D01*
X158770000Y-88290000D01*
G37*
X158770000Y-88290000D02*
X158770000Y-90290000D01*
X158270000Y-90290000D01*
X158270000Y-88290000D01*
X158770000Y-88290000D01*
G36*
X159770000Y-88290000D02*
G01*
X159770000Y-90290000D01*
X159270000Y-90290000D01*
X159270000Y-88290000D01*
X159770000Y-88290000D01*
G37*
X159770000Y-88290000D02*
X159770000Y-90290000D01*
X159270000Y-90290000D01*
X159270000Y-88290000D01*
X159770000Y-88290000D01*
G36*
X160770000Y-88290000D02*
G01*
X160770000Y-90290000D01*
X160270000Y-90290000D01*
X160270000Y-88290000D01*
X160770000Y-88290000D01*
G37*
X160770000Y-88290000D02*
X160770000Y-90290000D01*
X160270000Y-90290000D01*
X160270000Y-88290000D01*
X160770000Y-88290000D01*
G36*
X161770000Y-88290000D02*
G01*
X161770000Y-90290000D01*
X161270000Y-90290000D01*
X161270000Y-88290000D01*
X161770000Y-88290000D01*
G37*
X161770000Y-88290000D02*
X161770000Y-90290000D01*
X161270000Y-90290000D01*
X161270000Y-88290000D01*
X161770000Y-88290000D01*
G36*
X162770000Y-88290000D02*
G01*
X162770000Y-90290000D01*
X162270000Y-90290000D01*
X162270000Y-88290000D01*
X162770000Y-88290000D01*
G37*
X162770000Y-88290000D02*
X162770000Y-90290000D01*
X162270000Y-90290000D01*
X162270000Y-88290000D01*
X162770000Y-88290000D01*
G36*
X163770000Y-88290000D02*
G01*
X163770000Y-90290000D01*
X163270000Y-90290000D01*
X163270000Y-88290000D01*
X163770000Y-88290000D01*
G37*
X163770000Y-88290000D02*
X163770000Y-90290000D01*
X163270000Y-90290000D01*
X163270000Y-88290000D01*
X163770000Y-88290000D01*
G36*
X160782000Y-80518000D02*
G01*
X160782000Y-83058000D01*
X161798000Y-83058000D01*
X161798000Y-80518000D01*
X160782000Y-80518000D01*
G37*
X160782000Y-80518000D02*
X160782000Y-83058000D01*
X161798000Y-83058000D01*
X161798000Y-80518000D01*
X160782000Y-80518000D01*
G36*
X158242000Y-80518000D02*
G01*
X158242000Y-83058000D01*
X159258000Y-83058000D01*
X159258000Y-80518000D01*
X158242000Y-80518000D01*
G37*
X158242000Y-80518000D02*
X158242000Y-83058000D01*
X159258000Y-83058000D01*
X159258000Y-80518000D01*
X158242000Y-80518000D01*
G36*
X154432000Y-104648000D02*
G01*
X154432000Y-107188000D01*
X155448000Y-107188000D01*
X155448000Y-104648000D01*
X154432000Y-104648000D01*
G37*
X154432000Y-104648000D02*
X154432000Y-107188000D01*
X155448000Y-107188000D01*
X155448000Y-104648000D01*
X154432000Y-104648000D01*
G36*
X156972000Y-104648000D02*
G01*
X156972000Y-107188000D01*
X157988000Y-107188000D01*
X157988000Y-104648000D01*
X156972000Y-104648000D01*
G37*
X156972000Y-104648000D02*
X156972000Y-107188000D01*
X157988000Y-107188000D01*
X157988000Y-104648000D01*
X156972000Y-104648000D01*
G36*
X159512000Y-104648000D02*
G01*
X159512000Y-107188000D01*
X160528000Y-107188000D01*
X160528000Y-104648000D01*
X159512000Y-104648000D01*
G37*
X159512000Y-104648000D02*
X159512000Y-107188000D01*
X160528000Y-107188000D01*
X160528000Y-104648000D01*
X159512000Y-104648000D01*
G36*
X162052000Y-104648000D02*
G01*
X162052000Y-107188000D01*
X163068000Y-107188000D01*
X163068000Y-104648000D01*
X162052000Y-104648000D01*
G37*
X162052000Y-104648000D02*
X162052000Y-107188000D01*
X163068000Y-107188000D01*
X163068000Y-104648000D01*
X162052000Y-104648000D01*
G36*
X164592000Y-104648000D02*
G01*
X164592000Y-107188000D01*
X165608000Y-107188000D01*
X165608000Y-104648000D01*
X164592000Y-104648000D01*
G37*
X164592000Y-104648000D02*
X164592000Y-107188000D01*
X165608000Y-107188000D01*
X165608000Y-104648000D01*
X164592000Y-104648000D01*
G36*
X164592000Y-108712000D02*
G01*
X164592000Y-111252000D01*
X165608000Y-111252000D01*
X165608000Y-108712000D01*
X164592000Y-108712000D01*
G37*
X164592000Y-108712000D02*
X164592000Y-111252000D01*
X165608000Y-111252000D01*
X165608000Y-108712000D01*
X164592000Y-108712000D01*
G36*
X162052000Y-108712000D02*
G01*
X162052000Y-111252000D01*
X163068000Y-111252000D01*
X163068000Y-108712000D01*
X162052000Y-108712000D01*
G37*
X162052000Y-108712000D02*
X162052000Y-111252000D01*
X163068000Y-111252000D01*
X163068000Y-108712000D01*
X162052000Y-108712000D01*
G36*
X159512000Y-108712000D02*
G01*
X159512000Y-111252000D01*
X160528000Y-111252000D01*
X160528000Y-108712000D01*
X159512000Y-108712000D01*
G37*
X159512000Y-108712000D02*
X159512000Y-111252000D01*
X160528000Y-111252000D01*
X160528000Y-108712000D01*
X159512000Y-108712000D01*
G36*
X156972000Y-108712000D02*
G01*
X156972000Y-111252000D01*
X157988000Y-111252000D01*
X157988000Y-108712000D01*
X156972000Y-108712000D01*
G37*
X156972000Y-108712000D02*
X156972000Y-111252000D01*
X157988000Y-111252000D01*
X157988000Y-108712000D01*
X156972000Y-108712000D01*
G36*
X154432000Y-108712000D02*
G01*
X154432000Y-111252000D01*
X155448000Y-111252000D01*
X155448000Y-108712000D01*
X154432000Y-108712000D01*
G37*
X154432000Y-108712000D02*
X154432000Y-111252000D01*
X155448000Y-111252000D01*
X155448000Y-108712000D01*
X154432000Y-108712000D01*
M02*
