M48
; DRILL file {KiCad (5.1.4)-1} date 2019/11/9 18:51:22
; FORMAT={-:-/ absolute / inch / decimal}
; #@! TF.CreationDate,2019-11-09T18:51:22+08:00
; #@! TF.GenerationSoftware,Kicad,Pcbnew,(5.1.4)-1
; #@! TF.FileFunction,Plated,1,2,PTH
FMAT,2
INCH
T1C0.0130
T2C0.0197
T3C0.0394
T4C0.0433
%
G90
G05
T1
X6.0255Y-3.5603
X6.0545Y-3.5443
X6.5479Y-4.3787
X6.556Y-4.346
T2
X6.1622Y-3.481
X6.2016Y-3.481
X6.2409Y-3.481
X6.2803Y-3.481
X6.3197Y-3.481
X6.3591Y-3.481
X6.3984Y-3.481
X6.4378Y-3.481
T3
X6.1Y-4.2
X6.1Y-4.3
X6.2Y-4.2
X6.2Y-4.3
X6.25Y-3.225
X6.3Y-4.2
X6.3Y-4.3
X6.35Y-3.225
X6.4Y-4.2
X6.4Y-4.3
X6.5Y-4.2
X6.5Y-4.3
X5.9Y-3.2
X5.9Y-3.3
X5.9Y-3.4
X5.9Y-3.5
X5.9Y-3.6
X5.9Y-3.7
X5.9Y-3.8
X5.9Y-3.9
X5.9Y-4.0
X5.9Y-4.1
X5.9Y-4.2
X5.9Y-4.3
X5.9Y-4.4
X5.9Y-4.5
X6.7Y-3.2
X6.7Y-3.3
X6.7Y-3.4
X6.7Y-3.5
X6.7Y-3.6
X6.7Y-3.7
X6.7Y-3.8
X6.7Y-3.9
X6.7Y-4.0
X6.7Y-4.1
X6.7Y-4.2
X6.7Y-4.3
X6.7Y-4.4
X6.7Y-4.5
T4
X6.0Y-3.2
X6.0Y-3.3
X6.0Y-3.4
X6.0Y-3.5
X6.0Y-3.6
X6.0Y-3.7
X6.0Y-3.8
X6.0Y-3.9
X6.0Y-4.0
X6.0Y-4.1
X6.0Y-4.2
X6.0Y-4.3
X6.0Y-4.4
X6.0Y-4.5
X6.1Y-4.5
X6.2Y-4.5
X6.3Y-4.5
X6.4Y-4.5
X6.5Y-3.3
X6.5Y-4.5
X6.6Y-3.2
X6.6Y-3.3
X6.6Y-3.4
X6.6Y-3.5
X6.6Y-3.6
X6.6Y-3.7
X6.6Y-3.8
X6.6Y-3.9
X6.6Y-4.0
X6.6Y-4.1
X6.6Y-4.2
X6.6Y-4.3
X6.6Y-4.4
X6.6Y-4.5
T0
M30
